<mxfile host="app.diagrams.net" modified="2022-12-16T08:38:57.508Z" agent="5.0 (X11; Linux x86_64) AppleWebKit/537.36 (KHTML, like Gecko) Chrome/108.0.0.0 Safari/537.36" version="20.7.3" etag="Z6tP4sAb_ba2o9MBVedk" type="github">
  <diagram id="qIqN_QBV_P0xhIEw-Xfz" name="Page-1">
    <mxGraphModel dx="2565" dy="519" grid="1" gridSize="10" guides="1" tooltips="1" connect="1" arrows="1" fold="1" page="1" pageScale="1" pageWidth="827" pageHeight="1169" math="0" shadow="0">
      <root>
        <mxCell id="0" />
        <mxCell id="1" parent="0" />
        <mxCell id="mqnPU8PIk2e7HvB2Qb2y-1" style="edgeStyle=orthogonalEdgeStyle;rounded=0;orthogonalLoop=1;jettySize=auto;html=1;entryX=0.5;entryY=0;entryDx=0;entryDy=0;fontSize=17;fontColor=#EA6B66;startArrow=none;startFill=0;endArrow=none;endFill=0;" edge="1" parent="1" source="mqnPU8PIk2e7HvB2Qb2y-2" target="mqnPU8PIk2e7HvB2Qb2y-325">
          <mxGeometry relative="1" as="geometry" />
        </mxCell>
        <mxCell id="mqnPU8PIk2e7HvB2Qb2y-2" value="Exposition" style="swimlane;fontStyle=1;align=center;verticalAlign=top;childLayout=stackLayout;horizontal=1;startSize=26;horizontalStack=0;resizeParent=1;resizeParentMax=0;resizeLast=0;collapsible=1;marginBottom=0;fillColor=#647687;strokeColor=#314354;fontColor=#ffffff;" vertex="1" parent="1">
          <mxGeometry x="650" y="430" width="100" height="88" as="geometry">
            <mxRectangle x="600" y="310" width="90" height="26" as="alternateBounds" />
          </mxGeometry>
        </mxCell>
        <mxCell id="mqnPU8PIk2e7HvB2Qb2y-3" value="+ niveau: real&#xa;+ durée: real&#xa;+ fréquence: real" style="text;align=left;verticalAlign=top;spacingLeft=4;spacingRight=4;overflow=hidden;rotatable=0;points=[[0,0.5],[1,0.5]];portConstraint=eastwest;" vertex="1" parent="mqnPU8PIk2e7HvB2Qb2y-2">
          <mxGeometry y="26" width="100" height="54" as="geometry" />
        </mxCell>
        <mxCell id="mqnPU8PIk2e7HvB2Qb2y-4" value="" style="line;strokeWidth=1;fillColor=none;align=left;verticalAlign=middle;spacingTop=-1;spacingLeft=3;spacingRight=3;rotatable=0;labelPosition=right;points=[];portConstraint=eastwest;" vertex="1" parent="mqnPU8PIk2e7HvB2Qb2y-2">
          <mxGeometry y="80" width="100" height="8" as="geometry" />
        </mxCell>
        <mxCell id="mqnPU8PIk2e7HvB2Qb2y-9" style="edgeStyle=elbowEdgeStyle;rounded=0;orthogonalLoop=1;jettySize=auto;html=1;exitX=1;exitY=0.5;exitDx=0;exitDy=0;entryX=0;entryY=0.25;entryDx=0;entryDy=0;endArrow=none;endFill=0;" edge="1" parent="1" source="mqnPU8PIk2e7HvB2Qb2y-10" target="mqnPU8PIk2e7HvB2Qb2y-235">
          <mxGeometry relative="1" as="geometry" />
        </mxCell>
        <mxCell id="mqnPU8PIk2e7HvB2Qb2y-10" value="" style="rhombus;aspect=fixed;" vertex="1" parent="1">
          <mxGeometry x="690" y="360" width="20" height="20" as="geometry" />
        </mxCell>
        <mxCell id="mqnPU8PIk2e7HvB2Qb2y-11" value="" style="endArrow=none;html=1;rounded=0;align=center;verticalAlign=bottom;labelBackgroundColor=none;exitX=1;exitY=0.25;exitDx=0;exitDy=0;edgeStyle=elbowEdgeStyle;" edge="1" parent="1" source="mqnPU8PIk2e7HvB2Qb2y-342" target="mqnPU8PIk2e7HvB2Qb2y-10">
          <mxGeometry relative="1" as="geometry">
            <mxPoint x="280" y="369.5" as="sourcePoint" />
          </mxGeometry>
        </mxCell>
        <mxCell id="mqnPU8PIk2e7HvB2Qb2y-12" value="" style="endArrow=none;html=1;rounded=0;align=center;verticalAlign=bottom;labelBackgroundColor=none;entryX=0.5;entryY=0;entryDx=0;entryDy=0;edgeStyle=elbowEdgeStyle;elbow=vertical;" edge="1" parent="1" source="mqnPU8PIk2e7HvB2Qb2y-10" target="mqnPU8PIk2e7HvB2Qb2y-2">
          <mxGeometry relative="1" as="geometry">
            <mxPoint x="460" y="370" as="targetPoint" />
          </mxGeometry>
        </mxCell>
        <mxCell id="mqnPU8PIk2e7HvB2Qb2y-16" style="edgeStyle=orthogonalEdgeStyle;rounded=0;orthogonalLoop=1;jettySize=auto;html=1;exitX=0.5;exitY=0;exitDx=0;exitDy=0;endArrow=block;endFill=0;entryX=1;entryY=0.25;entryDx=0;entryDy=0;" edge="1" parent="1" source="mqnPU8PIk2e7HvB2Qb2y-18" target="mqnPU8PIk2e7HvB2Qb2y-235">
          <mxGeometry relative="1" as="geometry">
            <mxPoint x="1510" y="495" as="targetPoint" />
          </mxGeometry>
        </mxCell>
        <mxCell id="mqnPU8PIk2e7HvB2Qb2y-17" style="edgeStyle=orthogonalEdgeStyle;rounded=0;orthogonalLoop=1;jettySize=auto;html=1;exitX=0.25;exitY=0;exitDx=0;exitDy=0;entryX=0.75;entryY=1;entryDx=0;entryDy=0;endArrow=diamond;endFill=0;" edge="1" parent="1" source="mqnPU8PIk2e7HvB2Qb2y-18" target="mqnPU8PIk2e7HvB2Qb2y-22">
          <mxGeometry relative="1" as="geometry" />
        </mxCell>
        <mxCell id="mqnPU8PIk2e7HvB2Qb2y-18" value="Individu humain" style="swimlane;fontStyle=1;align=center;verticalAlign=top;childLayout=stackLayout;horizontal=1;startSize=26;horizontalStack=0;resizeParent=1;resizeParentMax=0;resizeLast=0;collapsible=1;marginBottom=0;fillColor=#ffe6cc;strokeColor=#d79b00;" vertex="1" parent="1">
          <mxGeometry x="1721" y="1514" width="300" height="168" as="geometry" />
        </mxCell>
        <mxCell id="mqnPU8PIk2e7HvB2Qb2y-19" value="+ activité prof. principale: char&#xa;+ activité de loisir principale: char&#xa;+ protection individuelle: char&#xa;+ susceptibilité individuelle (génétique, G6PD, ...): ...&#xa;+ connaissance du risque: char&#xa;+ sexe&#xa;+ date naissance" style="text;strokeColor=none;fillColor=none;align=left;verticalAlign=top;spacingLeft=4;spacingRight=4;overflow=hidden;rotatable=0;points=[[0,0.5],[1,0.5]];portConstraint=eastwest;" vertex="1" parent="mqnPU8PIk2e7HvB2Qb2y-18">
          <mxGeometry y="26" width="300" height="134" as="geometry" />
        </mxCell>
        <mxCell id="mqnPU8PIk2e7HvB2Qb2y-20" value="" style="line;strokeWidth=1;fillColor=none;align=left;verticalAlign=middle;spacingTop=-1;spacingLeft=3;spacingRight=3;rotatable=0;labelPosition=right;points=[];portConstraint=eastwest;" vertex="1" parent="mqnPU8PIk2e7HvB2Qb2y-18">
          <mxGeometry y="160" width="300" height="8" as="geometry" />
        </mxCell>
        <mxCell id="mqnPU8PIk2e7HvB2Qb2y-21" style="edgeStyle=orthogonalEdgeStyle;rounded=0;orthogonalLoop=1;jettySize=auto;html=1;exitX=0.5;exitY=0;exitDx=0;exitDy=0;entryX=0.5;entryY=1;entryDx=0;entryDy=0;endArrow=block;endFill=0;" edge="1" parent="1" source="mqnPU8PIk2e7HvB2Qb2y-22" target="mqnPU8PIk2e7HvB2Qb2y-235">
          <mxGeometry relative="1" as="geometry" />
        </mxCell>
        <mxCell id="mqnPU8PIk2e7HvB2Qb2y-22" value="Population humaine" style="swimlane;fontStyle=1;align=center;verticalAlign=top;childLayout=stackLayout;horizontal=1;startSize=26;horizontalStack=0;resizeParent=1;resizeParentMax=0;resizeLast=0;collapsible=1;marginBottom=0;fillColor=#ffe6cc;strokeColor=#d79b00;" vertex="1" parent="1">
          <mxGeometry x="1142" y="690" width="340" height="148" as="geometry" />
        </mxCell>
        <mxCell id="mqnPU8PIk2e7HvB2Qb2y-23" value="+ activités (%): real&#xa;+ densité: real&#xa;+ susceptibilité individuelle (génétique, G6PD, ...) (taux): real&#xa;+ connaissance du risque: real&#xa;+ protections individuelles (taux d&#39;utilisation): real&#xa;+..." style="text;strokeColor=none;fillColor=none;align=left;verticalAlign=top;spacingLeft=4;spacingRight=4;overflow=hidden;rotatable=0;points=[[0,0.5],[1,0.5]];portConstraint=eastwest;" vertex="1" parent="mqnPU8PIk2e7HvB2Qb2y-22">
          <mxGeometry y="26" width="340" height="114" as="geometry" />
        </mxCell>
        <mxCell id="mqnPU8PIk2e7HvB2Qb2y-24" value="" style="line;strokeWidth=1;fillColor=none;align=left;verticalAlign=middle;spacingTop=-1;spacingLeft=3;spacingRight=3;rotatable=0;labelPosition=right;points=[];portConstraint=eastwest;" vertex="1" parent="mqnPU8PIk2e7HvB2Qb2y-22">
          <mxGeometry y="140" width="340" height="8" as="geometry" />
        </mxCell>
        <mxCell id="mqnPU8PIk2e7HvB2Qb2y-27" value="piqûre(s)" style="swimlane;fontStyle=1;align=center;verticalAlign=top;childLayout=stackLayout;horizontal=1;startSize=26;horizontalStack=0;resizeParent=1;resizeParentMax=0;resizeLast=0;collapsible=1;marginBottom=0;" vertex="1" parent="1">
          <mxGeometry x="215" y="1130" width="300" height="36" as="geometry" />
        </mxCell>
        <mxCell id="mqnPU8PIk2e7HvB2Qb2y-28" value="" style="line;strokeWidth=1;fillColor=none;align=left;verticalAlign=middle;spacingTop=-1;spacingLeft=3;spacingRight=3;rotatable=0;labelPosition=right;points=[];portConstraint=eastwest;" vertex="1" parent="mqnPU8PIk2e7HvB2Qb2y-27">
          <mxGeometry y="26" width="300" height="10" as="geometry" />
        </mxCell>
        <mxCell id="mqnPU8PIk2e7HvB2Qb2y-29" style="edgeStyle=orthogonalEdgeStyle;rounded=0;orthogonalLoop=1;jettySize=auto;html=1;exitX=0.75;exitY=0;exitDx=0;exitDy=0;endArrow=block;endFill=0;elbow=vertical;entryX=0.25;entryY=1;entryDx=0;entryDy=0;" edge="1" parent="1" source="mqnPU8PIk2e7HvB2Qb2y-31" target="mqnPU8PIk2e7HvB2Qb2y-27">
          <mxGeometry relative="1" as="geometry">
            <mxPoint x="220" y="688" as="targetPoint" />
          </mxGeometry>
        </mxCell>
        <mxCell id="mqnPU8PIk2e7HvB2Qb2y-30" style="edgeStyle=orthogonalEdgeStyle;rounded=0;orthogonalLoop=1;jettySize=auto;html=1;exitX=0.25;exitY=0;exitDx=0;exitDy=0;entryX=0;entryY=0.5;entryDx=0;entryDy=0;startArrow=none;startFill=0;endArrow=none;endFill=0;" edge="1" parent="1" source="mqnPU8PIk2e7HvB2Qb2y-31" target="mqnPU8PIk2e7HvB2Qb2y-351">
          <mxGeometry relative="1" as="geometry">
            <mxPoint x="540" y="1400" as="sourcePoint" />
          </mxGeometry>
        </mxCell>
        <mxCell id="mqnPU8PIk2e7HvB2Qb2y-31" value="piqûre(s) infectante(s) (transmission)" style="swimlane;fontStyle=1;align=center;verticalAlign=top;childLayout=stackLayout;horizontal=1;startSize=26;horizontalStack=0;resizeParent=1;resizeParentMax=0;resizeLast=0;collapsible=1;marginBottom=0;" vertex="1" parent="1">
          <mxGeometry x="49" y="1390" width="320" height="36" as="geometry" />
        </mxCell>
        <mxCell id="mqnPU8PIk2e7HvB2Qb2y-32" value="" style="line;strokeWidth=1;fillColor=none;align=left;verticalAlign=middle;spacingTop=-1;spacingLeft=3;spacingRight=3;rotatable=0;labelPosition=right;points=[];portConstraint=eastwest;" vertex="1" parent="mqnPU8PIk2e7HvB2Qb2y-31">
          <mxGeometry y="26" width="320" height="10" as="geometry" />
        </mxCell>
        <mxCell id="mqnPU8PIk2e7HvB2Qb2y-33" style="edgeStyle=orthogonalEdgeStyle;rounded=0;orthogonalLoop=1;jettySize=auto;html=1;exitX=0.5;exitY=1;exitDx=0;exitDy=0;entryX=0.25;entryY=1;entryDx=0;entryDy=0;endArrow=none;endFill=0;" edge="1" parent="1" source="mqnPU8PIk2e7HvB2Qb2y-35" target="mqnPU8PIk2e7HvB2Qb2y-73">
          <mxGeometry relative="1" as="geometry">
            <Array as="points">
              <mxPoint x="-990" y="3595" />
              <mxPoint x="-222" y="3595" />
            </Array>
          </mxGeometry>
        </mxCell>
        <mxCell id="mqnPU8PIk2e7HvB2Qb2y-34" style="edgeStyle=orthogonalEdgeStyle;rounded=0;orthogonalLoop=1;jettySize=auto;html=1;exitX=0.5;exitY=0;exitDx=0;exitDy=0;entryX=0.25;entryY=1;entryDx=0;entryDy=0;endArrow=diamond;endFill=0;" edge="1" parent="1" source="mqnPU8PIk2e7HvB2Qb2y-35" target="mqnPU8PIk2e7HvB2Qb2y-148">
          <mxGeometry relative="1" as="geometry">
            <Array as="points">
              <mxPoint x="-990" y="2875" />
              <mxPoint x="-1208" y="2875" />
            </Array>
          </mxGeometry>
        </mxCell>
        <mxCell id="mqnPU8PIk2e7HvB2Qb2y-35" value="Occupation/usage du sol" style="swimlane;fontStyle=1;align=center;verticalAlign=top;childLayout=stackLayout;horizontal=1;startSize=26;horizontalStack=0;resizeParent=1;resizeParentMax=0;resizeLast=0;collapsible=1;marginBottom=0;fillColor=#d5e8d4;strokeColor=#82b366;" vertex="1" parent="1">
          <mxGeometry x="-1070" y="3003" width="160" height="60" as="geometry">
            <mxRectangle x="320" y="370" width="90" height="26" as="alternateBounds" />
          </mxGeometry>
        </mxCell>
        <mxCell id="mqnPU8PIk2e7HvB2Qb2y-36" value="+ ..." style="text;strokeColor=none;fillColor=none;align=left;verticalAlign=top;spacingLeft=4;spacingRight=4;overflow=hidden;rotatable=0;points=[[0,0.5],[1,0.5]];portConstraint=eastwest;" vertex="1" parent="mqnPU8PIk2e7HvB2Qb2y-35">
          <mxGeometry y="26" width="160" height="26" as="geometry" />
        </mxCell>
        <mxCell id="mqnPU8PIk2e7HvB2Qb2y-37" value="" style="line;strokeWidth=1;fillColor=none;align=left;verticalAlign=middle;spacingTop=-1;spacingLeft=3;spacingRight=3;rotatable=0;labelPosition=right;points=[];portConstraint=eastwest;" vertex="1" parent="mqnPU8PIk2e7HvB2Qb2y-35">
          <mxGeometry y="52" width="160" height="8" as="geometry" />
        </mxCell>
        <mxCell id="mqnPU8PIk2e7HvB2Qb2y-38" style="edgeStyle=orthogonalEdgeStyle;rounded=0;orthogonalLoop=1;jettySize=auto;html=1;exitX=0.5;exitY=0;exitDx=0;exitDy=0;entryX=0.5;entryY=1;entryDx=0;entryDy=0;endArrow=block;endFill=0;elbow=vertical;" edge="1" parent="1" source="mqnPU8PIk2e7HvB2Qb2y-39" target="mqnPU8PIk2e7HvB2Qb2y-43">
          <mxGeometry relative="1" as="geometry" />
        </mxCell>
        <mxCell id="mqnPU8PIk2e7HvB2Qb2y-39" value="Conditions météo" style="swimlane;fontStyle=1;align=center;verticalAlign=top;childLayout=stackLayout;horizontal=1;startSize=26;horizontalStack=0;resizeParent=1;resizeParentMax=0;resizeLast=0;collapsible=1;marginBottom=0;fillColor=#d5e8d4;strokeColor=#82b366;" vertex="1" parent="1">
          <mxGeometry x="-801" y="3133" width="160" height="60" as="geometry">
            <mxRectangle x="320" y="370" width="90" height="26" as="alternateBounds" />
          </mxGeometry>
        </mxCell>
        <mxCell id="mqnPU8PIk2e7HvB2Qb2y-40" value="+ ..." style="text;strokeColor=none;fillColor=none;align=left;verticalAlign=top;spacingLeft=4;spacingRight=4;overflow=hidden;rotatable=0;points=[[0,0.5],[1,0.5]];portConstraint=eastwest;" vertex="1" parent="mqnPU8PIk2e7HvB2Qb2y-39">
          <mxGeometry y="26" width="160" height="26" as="geometry" />
        </mxCell>
        <mxCell id="mqnPU8PIk2e7HvB2Qb2y-41" value="" style="line;strokeWidth=1;fillColor=none;align=left;verticalAlign=middle;spacingTop=-1;spacingLeft=3;spacingRight=3;rotatable=0;labelPosition=right;points=[];portConstraint=eastwest;" vertex="1" parent="mqnPU8PIk2e7HvB2Qb2y-39">
          <mxGeometry y="52" width="160" height="8" as="geometry" />
        </mxCell>
        <mxCell id="mqnPU8PIk2e7HvB2Qb2y-42" style="edgeStyle=orthogonalEdgeStyle;rounded=0;orthogonalLoop=1;jettySize=auto;html=1;exitX=0.5;exitY=0;exitDx=0;exitDy=0;entryX=0.5;entryY=1;entryDx=0;entryDy=0;endArrow=diamond;endFill=0;" edge="1" parent="1" source="mqnPU8PIk2e7HvB2Qb2y-43" target="mqnPU8PIk2e7HvB2Qb2y-148">
          <mxGeometry relative="1" as="geometry" />
        </mxCell>
        <mxCell id="mqnPU8PIk2e7HvB2Qb2y-43" value="Climat" style="swimlane;fontStyle=1;align=center;verticalAlign=top;childLayout=stackLayout;horizontal=1;startSize=26;horizontalStack=0;resizeParent=1;resizeParentMax=0;resizeLast=0;collapsible=1;marginBottom=0;fillColor=#d5e8d4;strokeColor=#82b366;" vertex="1" parent="1">
          <mxGeometry x="-800" y="3003" width="160" height="60" as="geometry">
            <mxRectangle x="320" y="370" width="90" height="26" as="alternateBounds" />
          </mxGeometry>
        </mxCell>
        <mxCell id="mqnPU8PIk2e7HvB2Qb2y-44" value="+ ..." style="text;strokeColor=none;fillColor=none;align=left;verticalAlign=top;spacingLeft=4;spacingRight=4;overflow=hidden;rotatable=0;points=[[0,0.5],[1,0.5]];portConstraint=eastwest;" vertex="1" parent="mqnPU8PIk2e7HvB2Qb2y-43">
          <mxGeometry y="26" width="160" height="26" as="geometry" />
        </mxCell>
        <mxCell id="mqnPU8PIk2e7HvB2Qb2y-45" value="" style="line;strokeWidth=1;fillColor=none;align=left;verticalAlign=middle;spacingTop=-1;spacingLeft=3;spacingRight=3;rotatable=0;labelPosition=right;points=[];portConstraint=eastwest;" vertex="1" parent="mqnPU8PIk2e7HvB2Qb2y-43">
          <mxGeometry y="52" width="160" height="8" as="geometry" />
        </mxCell>
        <mxCell id="mqnPU8PIk2e7HvB2Qb2y-46" style="edgeStyle=orthogonalEdgeStyle;rounded=0;orthogonalLoop=1;jettySize=auto;html=1;exitDx=0;exitDy=0;entryX=0.5;entryY=0;entryDx=0;entryDy=0;endArrow=none;endFill=0;startArrow=none;" edge="1" parent="1" source="mqnPU8PIk2e7HvB2Qb2y-319" target="mqnPU8PIk2e7HvB2Qb2y-241">
          <mxGeometry relative="1" as="geometry" />
        </mxCell>
        <mxCell id="mqnPU8PIk2e7HvB2Qb2y-47" style="edgeStyle=orthogonalEdgeStyle;rounded=0;orthogonalLoop=1;jettySize=auto;html=1;exitX=0.75;exitY=0;exitDx=0;exitDy=0;entryX=0;entryY=0.25;entryDx=0;entryDy=0;endArrow=none;endFill=0;startArrow=block;startFill=0;" edge="1" parent="1" source="mqnPU8PIk2e7HvB2Qb2y-48" target="mqnPU8PIk2e7HvB2Qb2y-141">
          <mxGeometry relative="1" as="geometry" />
        </mxCell>
        <mxCell id="mqnPU8PIk2e7HvB2Qb2y-48" value="Vecteur" style="swimlane;fontStyle=1;align=center;verticalAlign=top;childLayout=stackLayout;horizontal=1;startSize=26;horizontalStack=0;resizeParent=1;resizeParentMax=0;resizeLast=0;collapsible=1;marginBottom=0;fillColor=#dae8fc;strokeColor=#6c8ebf;" vertex="1" parent="1">
          <mxGeometry x="-924" y="1739" width="190" height="36" as="geometry" />
        </mxCell>
        <mxCell id="mqnPU8PIk2e7HvB2Qb2y-49" value="" style="line;strokeWidth=1;fillColor=none;align=left;verticalAlign=middle;spacingTop=-1;spacingLeft=3;spacingRight=3;rotatable=0;labelPosition=right;points=[];portConstraint=eastwest;" vertex="1" parent="mqnPU8PIk2e7HvB2Qb2y-48">
          <mxGeometry y="26" width="190" height="10" as="geometry" />
        </mxCell>
        <mxCell id="mqnPU8PIk2e7HvB2Qb2y-50" style="edgeStyle=orthogonalEdgeStyle;rounded=0;orthogonalLoop=1;jettySize=auto;html=1;exitX=0.5;exitY=0;exitDx=0;exitDy=0;entryX=0.75;entryY=1;entryDx=0;entryDy=0;endArrow=block;endFill=0;" edge="1" parent="1" source="mqnPU8PIk2e7HvB2Qb2y-52" target="mqnPU8PIk2e7HvB2Qb2y-278">
          <mxGeometry relative="1" as="geometry" />
        </mxCell>
        <mxCell id="mqnPU8PIk2e7HvB2Qb2y-51" style="edgeStyle=orthogonalEdgeStyle;rounded=0;orthogonalLoop=1;jettySize=auto;html=1;entryX=0;entryY=0.5;entryDx=0;entryDy=0;endArrow=block;endFill=0;exitX=1;exitY=0.5;exitDx=0;exitDy=0;" edge="1" parent="1" source="mqnPU8PIk2e7HvB2Qb2y-52" target="mqnPU8PIk2e7HvB2Qb2y-269">
          <mxGeometry relative="1" as="geometry" />
        </mxCell>
        <mxCell id="mqnPU8PIk2e7HvB2Qb2y-52" value="Anopheles" style="swimlane;fontStyle=1;align=center;verticalAlign=top;childLayout=stackLayout;horizontal=1;startSize=26;horizontalStack=0;resizeParent=1;resizeParentMax=0;resizeLast=0;collapsible=1;marginBottom=0;fillColor=#dae8fc;strokeColor=#6c8ebf;" vertex="1" parent="1">
          <mxGeometry x="-1314" y="1934" width="190" height="36" as="geometry" />
        </mxCell>
        <mxCell id="mqnPU8PIk2e7HvB2Qb2y-53" value="" style="line;strokeWidth=1;fillColor=none;align=left;verticalAlign=middle;spacingTop=-1;spacingLeft=3;spacingRight=3;rotatable=0;labelPosition=right;points=[];portConstraint=eastwest;" vertex="1" parent="mqnPU8PIk2e7HvB2Qb2y-52">
          <mxGeometry y="26" width="190" height="10" as="geometry" />
        </mxCell>
        <mxCell id="mqnPU8PIk2e7HvB2Qb2y-58" style="edgeStyle=orthogonalEdgeStyle;rounded=0;orthogonalLoop=1;jettySize=auto;html=1;exitX=0.25;exitY=0;exitDx=0;exitDy=0;endArrow=block;endFill=0;entryX=0.25;entryY=1;entryDx=0;entryDy=0;" edge="1" parent="1" source="mqnPU8PIk2e7HvB2Qb2y-59" target="mqnPU8PIk2e7HvB2Qb2y-278">
          <mxGeometry relative="1" as="geometry">
            <mxPoint x="-1610" y="1811" as="targetPoint" />
          </mxGeometry>
        </mxCell>
        <mxCell id="mqnPU8PIk2e7HvB2Qb2y-59" value="Aedes" style="swimlane;fontStyle=1;align=center;verticalAlign=top;childLayout=stackLayout;horizontal=1;startSize=26;horizontalStack=0;resizeParent=1;resizeParentMax=0;resizeLast=0;collapsible=1;marginBottom=0;fillColor=#dae8fc;strokeColor=#6c8ebf;" vertex="1" parent="1">
          <mxGeometry x="-1550" y="1934" width="190" height="36" as="geometry" />
        </mxCell>
        <mxCell id="mqnPU8PIk2e7HvB2Qb2y-60" value="" style="line;strokeWidth=1;fillColor=none;align=left;verticalAlign=middle;spacingTop=-1;spacingLeft=3;spacingRight=3;rotatable=0;labelPosition=right;points=[];portConstraint=eastwest;" vertex="1" parent="mqnPU8PIk2e7HvB2Qb2y-59">
          <mxGeometry y="26" width="190" height="10" as="geometry" />
        </mxCell>
        <mxCell id="mqnPU8PIk2e7HvB2Qb2y-61" style="edgeStyle=orthogonalEdgeStyle;rounded=0;orthogonalLoop=1;jettySize=auto;html=1;exitX=0.25;exitY=0;exitDx=0;exitDy=0;entryX=0.25;entryY=1;entryDx=0;entryDy=0;endArrow=block;endFill=0;" edge="1" parent="1" source="mqnPU8PIk2e7HvB2Qb2y-64" target="mqnPU8PIk2e7HvB2Qb2y-52">
          <mxGeometry relative="1" as="geometry" />
        </mxCell>
        <mxCell id="mqnPU8PIk2e7HvB2Qb2y-62" style="edgeStyle=orthogonalEdgeStyle;rounded=0;orthogonalLoop=1;jettySize=auto;html=1;entryX=0;entryY=0.5;entryDx=0;entryDy=0;endArrow=block;endFill=0;exitX=0.5;exitY=1;exitDx=0;exitDy=0;" edge="1" parent="1" source="mqnPU8PIk2e7HvB2Qb2y-64" target="mqnPU8PIk2e7HvB2Qb2y-272">
          <mxGeometry relative="1" as="geometry" />
        </mxCell>
        <mxCell id="mqnPU8PIk2e7HvB2Qb2y-63" style="edgeStyle=orthogonalEdgeStyle;rounded=0;orthogonalLoop=1;jettySize=auto;html=1;exitX=0.75;exitY=0;exitDx=0;exitDy=0;endArrow=block;endFill=0;entryX=0.25;entryY=1;entryDx=0;entryDy=0;" edge="1" parent="1" source="mqnPU8PIk2e7HvB2Qb2y-64" target="mqnPU8PIk2e7HvB2Qb2y-48">
          <mxGeometry relative="1" as="geometry">
            <mxPoint x="-930" y="1825" as="targetPoint" />
            <Array as="points">
              <mxPoint x="-1237" y="2005" />
              <mxPoint x="-874" y="2005" />
            </Array>
          </mxGeometry>
        </mxCell>
        <mxCell id="mqnPU8PIk2e7HvB2Qb2y-64" value="An. darlingi" style="swimlane;fontStyle=1;align=center;verticalAlign=top;childLayout=stackLayout;horizontal=1;startSize=26;horizontalStack=0;resizeParent=1;resizeParentMax=0;resizeLast=0;collapsible=1;marginBottom=0;fillColor=#dae8fc;strokeColor=#6c8ebf;" vertex="1" parent="1">
          <mxGeometry x="-1380" y="2026" width="190" height="100" as="geometry" />
        </mxCell>
        <mxCell id="mqnPU8PIk2e7HvB2Qb2y-65" value="+ anthropophilie: boolean (real?)&#xa;+ endophilie: boolean (real?)&#xa;+ endophagie: boolean (real?)&#xa;+..." style="text;strokeColor=none;fillColor=none;align=left;verticalAlign=top;spacingLeft=4;spacingRight=4;overflow=hidden;rotatable=0;points=[[0,0.5],[1,0.5]];portConstraint=eastwest;" vertex="1" parent="mqnPU8PIk2e7HvB2Qb2y-64">
          <mxGeometry y="26" width="190" height="64" as="geometry" />
        </mxCell>
        <mxCell id="mqnPU8PIk2e7HvB2Qb2y-66" value="" style="line;strokeWidth=1;fillColor=none;align=left;verticalAlign=middle;spacingTop=-1;spacingLeft=3;spacingRight=3;rotatable=0;labelPosition=right;points=[];portConstraint=eastwest;" vertex="1" parent="mqnPU8PIk2e7HvB2Qb2y-64">
          <mxGeometry y="90" width="190" height="10" as="geometry" />
        </mxCell>
        <mxCell id="mqnPU8PIk2e7HvB2Qb2y-67" style="edgeStyle=orthogonalEdgeStyle;rounded=0;orthogonalLoop=1;jettySize=auto;html=1;exitX=0.25;exitY=0;exitDx=0;exitDy=0;entryX=0.75;entryY=1;entryDx=0;entryDy=0;endArrow=block;endFill=0;" edge="1" parent="1" source="mqnPU8PIk2e7HvB2Qb2y-69" target="mqnPU8PIk2e7HvB2Qb2y-52">
          <mxGeometry relative="1" as="geometry" />
        </mxCell>
        <mxCell id="mqnPU8PIk2e7HvB2Qb2y-68" style="edgeStyle=orthogonalEdgeStyle;rounded=0;orthogonalLoop=1;jettySize=auto;html=1;exitX=0.75;exitY=0;exitDx=0;exitDy=0;entryX=0.75;entryY=1;entryDx=0;entryDy=0;endArrow=block;endFill=0;" edge="1" parent="1" source="mqnPU8PIk2e7HvB2Qb2y-69" target="mqnPU8PIk2e7HvB2Qb2y-48">
          <mxGeometry relative="1" as="geometry">
            <Array as="points">
              <mxPoint x="-1027" y="2015" />
              <mxPoint x="-779" y="2015" />
            </Array>
          </mxGeometry>
        </mxCell>
        <mxCell id="mqnPU8PIk2e7HvB2Qb2y-69" value="An. marajoara" style="swimlane;fontStyle=1;align=center;verticalAlign=top;childLayout=stackLayout;horizontal=1;startSize=26;horizontalStack=0;resizeParent=1;resizeParentMax=0;resizeLast=0;collapsible=1;marginBottom=0;fillColor=#dae8fc;strokeColor=#6c8ebf;" vertex="1" parent="1">
          <mxGeometry x="-1170" y="2026" width="190" height="100" as="geometry" />
        </mxCell>
        <mxCell id="mqnPU8PIk2e7HvB2Qb2y-70" value="+ anthropophilie: boolean (real?)&#xa;+ endophilie: boolean (real?)&#xa;+ endophagie: boolean (real?)&#xa;+..." style="text;strokeColor=none;fillColor=none;align=left;verticalAlign=top;spacingLeft=4;spacingRight=4;overflow=hidden;rotatable=0;points=[[0,0.5],[1,0.5]];portConstraint=eastwest;" vertex="1" parent="mqnPU8PIk2e7HvB2Qb2y-69">
          <mxGeometry y="26" width="190" height="64" as="geometry" />
        </mxCell>
        <mxCell id="mqnPU8PIk2e7HvB2Qb2y-71" value="" style="line;strokeWidth=1;fillColor=none;align=left;verticalAlign=middle;spacingTop=-1;spacingLeft=3;spacingRight=3;rotatable=0;labelPosition=right;points=[];portConstraint=eastwest;" vertex="1" parent="mqnPU8PIk2e7HvB2Qb2y-69">
          <mxGeometry y="90" width="190" height="10" as="geometry" />
        </mxCell>
        <mxCell id="mqnPU8PIk2e7HvB2Qb2y-72" style="edgeStyle=orthogonalEdgeStyle;rounded=0;orthogonalLoop=1;jettySize=auto;html=1;endArrow=diamond;endFill=0;entryX=0.75;entryY=1;entryDx=0;entryDy=0;exitX=0;exitY=0.25;exitDx=0;exitDy=0;" edge="1" parent="1" source="mqnPU8PIk2e7HvB2Qb2y-73" target="mqnPU8PIk2e7HvB2Qb2y-148">
          <mxGeometry relative="1" as="geometry">
            <mxPoint x="-1040" y="2755" as="targetPoint" />
            <mxPoint x="-290" y="2776" as="sourcePoint" />
          </mxGeometry>
        </mxCell>
        <mxCell id="mqnPU8PIk2e7HvB2Qb2y-73" value="Gîtes larvaires" style="swimlane;fontStyle=1;align=center;verticalAlign=top;childLayout=stackLayout;horizontal=1;startSize=26;horizontalStack=0;resizeParent=1;resizeParentMax=0;resizeLast=0;collapsible=1;marginBottom=0;fillColor=#d5e8d4;strokeColor=#82b366;" vertex="1" parent="1">
          <mxGeometry x="-267" y="2779" width="190" height="190" as="geometry" />
        </mxCell>
        <mxCell id="mqnPU8PIk2e7HvB2Qb2y-74" value="+ type: char&#xa;+ PH: real&#xa;+ t°: real&#xa;+ superficie: real&#xa;+ profondeur: real&#xa;+ largeur: real&#xa;+ débit: char&#xa;+ lat: real&#xa;+ long: real&#xa;+ ..." style="text;strokeColor=none;fillColor=none;align=left;verticalAlign=top;spacingLeft=4;spacingRight=4;overflow=hidden;rotatable=0;points=[[0,0.5],[1,0.5]];portConstraint=eastwest;" vertex="1" parent="mqnPU8PIk2e7HvB2Qb2y-73">
          <mxGeometry y="26" width="190" height="154" as="geometry" />
        </mxCell>
        <mxCell id="mqnPU8PIk2e7HvB2Qb2y-75" value="" style="line;strokeWidth=1;fillColor=none;align=left;verticalAlign=middle;spacingTop=-1;spacingLeft=3;spacingRight=3;rotatable=0;labelPosition=right;points=[];portConstraint=eastwest;" vertex="1" parent="mqnPU8PIk2e7HvB2Qb2y-73">
          <mxGeometry y="180" width="190" height="10" as="geometry" />
        </mxCell>
        <mxCell id="mqnPU8PIk2e7HvB2Qb2y-76" style="edgeStyle=orthogonalEdgeStyle;rounded=0;orthogonalLoop=1;jettySize=auto;html=1;exitX=0;exitY=0.75;exitDx=0;exitDy=0;entryX=0.75;entryY=1;entryDx=0;entryDy=0;endArrow=none;endFill=0;" edge="1" parent="1" source="mqnPU8PIk2e7HvB2Qb2y-80" target="mqnPU8PIk2e7HvB2Qb2y-35">
          <mxGeometry relative="1" as="geometry">
            <mxPoint x="471" y="3244" as="sourcePoint" />
          </mxGeometry>
        </mxCell>
        <mxCell id="mqnPU8PIk2e7HvB2Qb2y-77" style="edgeStyle=orthogonalEdgeStyle;rounded=0;orthogonalLoop=1;jettySize=auto;html=1;exitX=0.5;exitY=0;exitDx=0;exitDy=0;endArrow=none;endFill=0;entryX=0;entryY=0.5;entryDx=0;entryDy=0;" edge="1" parent="1" source="mqnPU8PIk2e7HvB2Qb2y-80" target="mqnPU8PIk2e7HvB2Qb2y-3">
          <mxGeometry relative="1" as="geometry">
            <mxPoint x="845" y="698" as="targetPoint" />
          </mxGeometry>
        </mxCell>
        <mxCell id="mqnPU8PIk2e7HvB2Qb2y-359" value="Contribue &amp;gt;" style="edgeLabel;html=1;align=center;verticalAlign=middle;resizable=0;points=[];" vertex="1" connectable="0" parent="mqnPU8PIk2e7HvB2Qb2y-77">
          <mxGeometry x="-0.9485" relative="1" as="geometry">
            <mxPoint as="offset" />
          </mxGeometry>
        </mxCell>
        <mxCell id="mqnPU8PIk2e7HvB2Qb2y-78" style="edgeStyle=orthogonalEdgeStyle;rounded=0;orthogonalLoop=1;jettySize=auto;html=1;exitX=0.25;exitY=0;exitDx=0;exitDy=0;entryX=0.75;entryY=1;entryDx=0;entryDy=0;startArrow=none;startFill=0;endArrow=none;endFill=0;" edge="1" parent="1" source="mqnPU8PIk2e7HvB2Qb2y-80" target="mqnPU8PIk2e7HvB2Qb2y-73">
          <mxGeometry relative="1" as="geometry" />
        </mxCell>
        <mxCell id="mqnPU8PIk2e7HvB2Qb2y-79" value="&amp;lt; Génère" style="edgeLabel;html=1;align=center;verticalAlign=middle;resizable=0;points=[];" vertex="1" connectable="0" parent="mqnPU8PIk2e7HvB2Qb2y-78">
          <mxGeometry x="0.4028" relative="1" as="geometry">
            <mxPoint x="-1" as="offset" />
          </mxGeometry>
        </mxCell>
        <mxCell id="mqnPU8PIk2e7HvB2Qb2y-80" value="Activités humaines" style="swimlane;fontStyle=1;align=center;verticalAlign=top;childLayout=stackLayout;horizontal=1;startSize=26;horizontalStack=0;resizeParent=1;resizeParentMax=0;resizeLast=0;collapsible=1;marginBottom=0;fillColor=#ffe6cc;strokeColor=#d79b00;" vertex="1" parent="1">
          <mxGeometry x="471" y="3205" width="160" height="34" as="geometry">
            <mxRectangle x="320" y="370" width="90" height="26" as="alternateBounds" />
          </mxGeometry>
        </mxCell>
        <mxCell id="mqnPU8PIk2e7HvB2Qb2y-81" value="" style="line;strokeWidth=1;fillColor=none;align=left;verticalAlign=middle;spacingTop=-1;spacingLeft=3;spacingRight=3;rotatable=0;labelPosition=right;points=[];portConstraint=eastwest;" vertex="1" parent="mqnPU8PIk2e7HvB2Qb2y-80">
          <mxGeometry y="26" width="160" height="8" as="geometry" />
        </mxCell>
        <mxCell id="mqnPU8PIk2e7HvB2Qb2y-82" value="&amp;lt; modifie" style="text;html=1;align=center;verticalAlign=middle;resizable=0;points=[];autosize=1;strokeColor=none;fillColor=none;" vertex="1" parent="1">
          <mxGeometry x="-640" y="3009" width="70" height="30" as="geometry" />
        </mxCell>
        <mxCell id="mqnPU8PIk2e7HvB2Qb2y-83" style="edgeStyle=orthogonalEdgeStyle;rounded=0;orthogonalLoop=1;jettySize=auto;html=1;exitX=0;exitY=0.5;exitDx=0;exitDy=0;entryX=1;entryY=0.5;entryDx=0;entryDy=0;endArrow=none;endFill=0;" edge="1" parent="1" source="mqnPU8PIk2e7HvB2Qb2y-44" target="mqnPU8PIk2e7HvB2Qb2y-36">
          <mxGeometry relative="1" as="geometry" />
        </mxCell>
        <mxCell id="mqnPU8PIk2e7HvB2Qb2y-84" value="&amp;lt; conditionne" style="text;html=1;align=center;verticalAlign=middle;resizable=0;points=[];autosize=1;strokeColor=none;fillColor=none;" vertex="1" parent="1">
          <mxGeometry x="-900" y="3018" width="100" height="30" as="geometry" />
        </mxCell>
        <mxCell id="mqnPU8PIk2e7HvB2Qb2y-85" value="&amp;lt; modifie" style="text;html=1;align=center;verticalAlign=middle;resizable=0;points=[];autosize=1;strokeColor=none;fillColor=none;" vertex="1" parent="1">
          <mxGeometry x="-922" y="3220" width="70" height="30" as="geometry" />
        </mxCell>
        <mxCell id="mqnPU8PIk2e7HvB2Qb2y-86" style="edgeStyle=orthogonalEdgeStyle;shape=connector;rounded=0;orthogonalLoop=1;jettySize=auto;html=1;entryX=0.5;entryY=0;entryDx=0;entryDy=0;labelBackgroundColor=default;fontFamily=Helvetica;fontSize=11;fontColor=default;endArrow=none;endFill=0;strokeColor=default;exitX=0.25;exitY=1;exitDx=0;exitDy=0;" edge="1" parent="1" source="mqnPU8PIk2e7HvB2Qb2y-35" target="mqnPU8PIk2e7HvB2Qb2y-89">
          <mxGeometry relative="1" as="geometry">
            <mxPoint x="-1060" y="3273" as="sourcePoint" />
          </mxGeometry>
        </mxCell>
        <mxCell id="mqnPU8PIk2e7HvB2Qb2y-87" value="&amp;lt; classifié par" style="edgeLabel;html=1;align=center;verticalAlign=middle;resizable=0;points=[];fontSize=11;fontFamily=Helvetica;fontColor=default;" vertex="1" connectable="0" parent="mqnPU8PIk2e7HvB2Qb2y-86">
          <mxGeometry x="0.2345" relative="1" as="geometry">
            <mxPoint x="25" y="-4" as="offset" />
          </mxGeometry>
        </mxCell>
        <mxCell id="mqnPU8PIk2e7HvB2Qb2y-88" style="edgeStyle=orthogonalEdgeStyle;rounded=0;orthogonalLoop=1;jettySize=auto;html=1;exitX=0.25;exitY=0;exitDx=0;exitDy=0;endArrow=none;endFill=0;entryX=0;entryY=0.232;entryDx=0;entryDy=0;entryPerimeter=0;" edge="1" parent="1" source="mqnPU8PIk2e7HvB2Qb2y-89" target="mqnPU8PIk2e7HvB2Qb2y-89">
          <mxGeometry relative="1" as="geometry">
            <mxPoint x="-1190" y="3186" as="targetPoint" />
            <Array as="points">
              <mxPoint x="-1145" y="3156" />
              <mxPoint x="-1190" y="3156" />
              <mxPoint x="-1190" y="3196" />
            </Array>
          </mxGeometry>
        </mxCell>
        <mxCell id="mqnPU8PIk2e7HvB2Qb2y-89" value="Type OS" style="swimlane;fontStyle=1;align=center;verticalAlign=top;childLayout=stackLayout;horizontal=1;startSize=26;horizontalStack=0;resizeParent=1;resizeParentMax=0;resizeLast=0;collapsible=1;marginBottom=0;" vertex="1" parent="1">
          <mxGeometry x="-1170" y="3183" width="100" height="56" as="geometry" />
        </mxCell>
        <mxCell id="mqnPU8PIk2e7HvB2Qb2y-90" value="+ label: char" style="text;strokeColor=none;fillColor=none;align=left;verticalAlign=top;spacingLeft=4;spacingRight=4;overflow=hidden;rotatable=0;points=[[0,0.5],[1,0.5]];portConstraint=eastwest;" vertex="1" parent="mqnPU8PIk2e7HvB2Qb2y-89">
          <mxGeometry y="26" width="100" height="22" as="geometry" />
        </mxCell>
        <mxCell id="mqnPU8PIk2e7HvB2Qb2y-91" value="" style="line;strokeWidth=1;fillColor=none;align=left;verticalAlign=middle;spacingTop=-1;spacingLeft=3;spacingRight=3;rotatable=0;labelPosition=right;points=[];portConstraint=eastwest;" vertex="1" parent="mqnPU8PIk2e7HvB2Qb2y-89">
          <mxGeometry y="48" width="100" height="8" as="geometry" />
        </mxCell>
        <mxCell id="mqnPU8PIk2e7HvB2Qb2y-92" style="edgeStyle=orthogonalEdgeStyle;shape=connector;rounded=0;orthogonalLoop=1;jettySize=auto;html=1;entryX=0.5;entryY=1;entryDx=0;entryDy=0;labelBackgroundColor=default;fontFamily=Helvetica;fontSize=11;fontColor=default;endArrow=open;endFill=0;strokeColor=default;dashed=1;dashPattern=1 1;" edge="1" parent="1" source="mqnPU8PIk2e7HvB2Qb2y-93" target="mqnPU8PIk2e7HvB2Qb2y-89">
          <mxGeometry relative="1" as="geometry" />
        </mxCell>
        <mxCell id="mqnPU8PIk2e7HvB2Qb2y-93" value="Veg" style="swimlane;fontStyle=4;childLayout=stackLayout;horizontal=1;startSize=26;fillColor=none;horizontalStack=0;resizeParent=1;resizeParentMax=0;resizeLast=0;collapsible=1;marginBottom=0;fontFamily=Helvetica;fontSize=11;fontColor=default;" vertex="1" parent="1">
          <mxGeometry x="-1240" y="3291" width="110" height="52" as="geometry">
            <mxRectangle x="610" y="510" width="40" height="26" as="alternateBounds" />
          </mxGeometry>
        </mxCell>
        <mxCell id="mqnPU8PIk2e7HvB2Qb2y-94" value="label=&quot;Végétation&quot;" style="text;strokeColor=none;fillColor=none;align=left;verticalAlign=top;spacingLeft=4;spacingRight=4;overflow=hidden;rotatable=0;points=[[0,0.5],[1,0.5]];portConstraint=eastwest;fontFamily=Helvetica;fontSize=11;fontColor=default;" vertex="1" parent="mqnPU8PIk2e7HvB2Qb2y-93">
          <mxGeometry y="26" width="110" height="26" as="geometry" />
        </mxCell>
        <mxCell id="mqnPU8PIk2e7HvB2Qb2y-95" style="edgeStyle=orthogonalEdgeStyle;shape=connector;rounded=0;orthogonalLoop=1;jettySize=auto;html=1;entryX=0.75;entryY=1;entryDx=0;entryDy=0;labelBackgroundColor=default;fontFamily=Helvetica;fontSize=11;fontColor=default;endArrow=open;endFill=0;strokeColor=default;dashed=1;dashPattern=1 1;" edge="1" parent="1" source="mqnPU8PIk2e7HvB2Qb2y-96" target="mqnPU8PIk2e7HvB2Qb2y-89">
          <mxGeometry relative="1" as="geometry" />
        </mxCell>
        <mxCell id="mqnPU8PIk2e7HvB2Qb2y-96" value="Urb" style="swimlane;fontStyle=4;childLayout=stackLayout;horizontal=1;startSize=26;fillColor=none;horizontalStack=0;resizeParent=1;resizeParentMax=0;resizeLast=0;collapsible=1;marginBottom=0;fontFamily=Helvetica;fontSize=11;fontColor=default;" vertex="1" parent="1">
          <mxGeometry x="-1110" y="3291" width="80" height="52" as="geometry">
            <mxRectangle x="610" y="510" width="40" height="26" as="alternateBounds" />
          </mxGeometry>
        </mxCell>
        <mxCell id="mqnPU8PIk2e7HvB2Qb2y-97" value="label=&quot;Urbain&quot;" style="text;strokeColor=none;fillColor=none;align=left;verticalAlign=top;spacingLeft=4;spacingRight=4;overflow=hidden;rotatable=0;points=[[0,0.5],[1,0.5]];portConstraint=eastwest;fontFamily=Helvetica;fontSize=11;fontColor=default;" vertex="1" parent="mqnPU8PIk2e7HvB2Qb2y-96">
          <mxGeometry y="26" width="80" height="26" as="geometry" />
        </mxCell>
        <mxCell id="mqnPU8PIk2e7HvB2Qb2y-98" style="edgeStyle=orthogonalEdgeStyle;rounded=0;orthogonalLoop=1;jettySize=auto;html=1;exitX=0;exitY=0.25;exitDx=0;exitDy=0;entryX=0.25;entryY=1;entryDx=0;entryDy=0;endArrow=none;endFill=0;" edge="1" parent="1" source="mqnPU8PIk2e7HvB2Qb2y-113" target="mqnPU8PIk2e7HvB2Qb2y-31">
          <mxGeometry relative="1" as="geometry">
            <mxPoint x="390" y="1035" as="sourcePoint" />
            <mxPoint x="160" y="812" as="targetPoint" />
          </mxGeometry>
        </mxCell>
        <mxCell id="mqnPU8PIk2e7HvB2Qb2y-99" value="&amp;lt; permet" style="edgeLabel;html=1;align=center;verticalAlign=middle;resizable=0;points=[];" vertex="1" connectable="0" parent="mqnPU8PIk2e7HvB2Qb2y-98">
          <mxGeometry x="-0.3256" y="1" relative="1" as="geometry">
            <mxPoint x="12" y="-3" as="offset" />
          </mxGeometry>
        </mxCell>
        <mxCell id="mqnPU8PIk2e7HvB2Qb2y-100" value="Agent pathogène" style="swimlane;fontStyle=1;align=center;verticalAlign=top;childLayout=stackLayout;horizontal=1;startSize=26;horizontalStack=0;resizeParent=1;resizeParentMax=0;resizeLast=0;collapsible=1;marginBottom=0;fillColor=#e1d5e7;strokeColor=#9673a6;" vertex="1" parent="1">
          <mxGeometry x="80" y="1709" width="230" height="80" as="geometry" />
        </mxCell>
        <mxCell id="mqnPU8PIk2e7HvB2Qb2y-101" value="+ type: char" style="text;strokeColor=none;fillColor=none;align=left;verticalAlign=top;spacingLeft=4;spacingRight=4;overflow=hidden;rotatable=0;points=[[0,0.5],[1,0.5]];portConstraint=eastwest;" vertex="1" parent="mqnPU8PIk2e7HvB2Qb2y-100">
          <mxGeometry y="26" width="230" height="44" as="geometry" />
        </mxCell>
        <mxCell id="mqnPU8PIk2e7HvB2Qb2y-102" value="" style="line;strokeWidth=1;fillColor=none;align=left;verticalAlign=middle;spacingTop=-1;spacingLeft=3;spacingRight=3;rotatable=0;labelPosition=right;points=[];portConstraint=eastwest;" vertex="1" parent="mqnPU8PIk2e7HvB2Qb2y-100">
          <mxGeometry y="70" width="230" height="10" as="geometry" />
        </mxCell>
        <mxCell id="mqnPU8PIk2e7HvB2Qb2y-103" style="edgeStyle=orthogonalEdgeStyle;rounded=0;orthogonalLoop=1;jettySize=auto;html=1;exitDx=0;exitDy=0;entryX=0.5;entryY=1;entryDx=0;entryDy=0;endArrow=none;endFill=0;startArrow=none;" edge="1" parent="1" source="mqnPU8PIk2e7HvB2Qb2y-309" target="mqnPU8PIk2e7HvB2Qb2y-22">
          <mxGeometry relative="1" as="geometry" />
        </mxCell>
        <mxCell id="mqnPU8PIk2e7HvB2Qb2y-104" style="edgeStyle=orthogonalEdgeStyle;rounded=0;orthogonalLoop=1;jettySize=auto;html=1;exitX=0.5;exitY=0;exitDx=0;exitDy=0;entryX=0.5;entryY=1;entryDx=0;entryDy=0;endArrow=block;endFill=0;" edge="1" parent="1" source="mqnPU8PIk2e7HvB2Qb2y-106" target="mqnPU8PIk2e7HvB2Qb2y-117">
          <mxGeometry relative="1" as="geometry" />
        </mxCell>
        <mxCell id="mqnPU8PIk2e7HvB2Qb2y-105" style="edgeStyle=orthogonalEdgeStyle;rounded=0;orthogonalLoop=1;jettySize=auto;html=1;exitX=0;exitY=0.5;exitDx=0;exitDy=0;entryX=1;entryY=0.5;entryDx=0;entryDy=0;endArrow=block;endFill=0;" edge="1" parent="1" source="mqnPU8PIk2e7HvB2Qb2y-106" target="mqnPU8PIk2e7HvB2Qb2y-269">
          <mxGeometry relative="1" as="geometry" />
        </mxCell>
        <mxCell id="mqnPU8PIk2e7HvB2Qb2y-106" value="Plasmodium" style="swimlane;fontStyle=1;align=center;verticalAlign=top;childLayout=stackLayout;horizontal=1;startSize=26;horizontalStack=0;resizeParent=1;resizeParentMax=0;resizeLast=0;collapsible=1;marginBottom=0;fillColor=#e1d5e7;strokeColor=#9673a6;" vertex="1" parent="1">
          <mxGeometry x="67" y="1934" width="140" height="36" as="geometry" />
        </mxCell>
        <mxCell id="mqnPU8PIk2e7HvB2Qb2y-107" value="" style="line;strokeWidth=1;fillColor=none;align=left;verticalAlign=middle;spacingTop=-1;spacingLeft=3;spacingRight=3;rotatable=0;labelPosition=right;points=[];portConstraint=eastwest;" vertex="1" parent="mqnPU8PIk2e7HvB2Qb2y-106">
          <mxGeometry y="26" width="140" height="10" as="geometry" />
        </mxCell>
        <mxCell id="mqnPU8PIk2e7HvB2Qb2y-108" style="edgeStyle=orthogonalEdgeStyle;rounded=0;orthogonalLoop=1;jettySize=auto;html=1;exitX=0.5;exitY=0;exitDx=0;exitDy=0;entryX=0.25;entryY=1;entryDx=0;entryDy=0;endArrow=block;endFill=0;" edge="1" parent="1" source="mqnPU8PIk2e7HvB2Qb2y-109" target="mqnPU8PIk2e7HvB2Qb2y-106">
          <mxGeometry relative="1" as="geometry" />
        </mxCell>
        <mxCell id="mqnPU8PIk2e7HvB2Qb2y-109" value="P. falciparum" style="swimlane;fontStyle=1;align=center;verticalAlign=top;childLayout=stackLayout;horizontal=1;startSize=26;horizontalStack=0;resizeParent=1;resizeParentMax=0;resizeLast=0;collapsible=1;marginBottom=0;" vertex="1" parent="1">
          <mxGeometry x="-30" y="2026" width="150" height="80" as="geometry" />
        </mxCell>
        <mxCell id="mqnPU8PIk2e7HvB2Qb2y-110" value="+ ..." style="text;strokeColor=#9673a6;fillColor=#e1d5e7;align=left;verticalAlign=top;spacingLeft=4;spacingRight=4;overflow=hidden;rotatable=0;points=[[0,0.5],[1,0.5]];portConstraint=eastwest;" vertex="1" parent="mqnPU8PIk2e7HvB2Qb2y-109">
          <mxGeometry y="26" width="150" height="44" as="geometry" />
        </mxCell>
        <mxCell id="mqnPU8PIk2e7HvB2Qb2y-111" value="" style="line;strokeWidth=1;fillColor=none;align=left;verticalAlign=middle;spacingTop=-1;spacingLeft=3;spacingRight=3;rotatable=0;labelPosition=right;points=[];portConstraint=eastwest;" vertex="1" parent="mqnPU8PIk2e7HvB2Qb2y-109">
          <mxGeometry y="70" width="150" height="10" as="geometry" />
        </mxCell>
        <mxCell id="mqnPU8PIk2e7HvB2Qb2y-112" style="edgeStyle=orthogonalEdgeStyle;rounded=0;orthogonalLoop=1;jettySize=auto;html=1;exitX=0.5;exitY=1;exitDx=0;exitDy=0;endArrow=none;endFill=0;dashed=1;entryX=0.658;entryY=0.558;entryDx=0;entryDy=0;entryPerimeter=0;" edge="1" parent="1" source="mqnPU8PIk2e7HvB2Qb2y-113" target="mqnPU8PIk2e7HvB2Qb2y-309">
          <mxGeometry relative="1" as="geometry">
            <mxPoint x="580" y="1735" as="targetPoint" />
          </mxGeometry>
        </mxCell>
        <mxCell id="mqnPU8PIk2e7HvB2Qb2y-113" value="Circulation agent pathogène" style="swimlane;fontStyle=1;align=center;verticalAlign=top;childLayout=stackLayout;horizontal=1;startSize=26;horizontalStack=0;resizeParent=1;resizeParentMax=0;resizeLast=0;collapsible=1;marginBottom=0;" vertex="1" parent="1">
          <mxGeometry x="277" y="1595" width="250" height="60" as="geometry" />
        </mxCell>
        <mxCell id="mqnPU8PIk2e7HvB2Qb2y-114" value="+ charge parasitaire (~tx. d&#39;incidence): real" style="text;strokeColor=none;fillColor=none;align=left;verticalAlign=top;spacingLeft=4;spacingRight=4;overflow=hidden;rotatable=0;points=[[0,0.5],[1,0.5]];portConstraint=eastwest;" vertex="1" parent="mqnPU8PIk2e7HvB2Qb2y-113">
          <mxGeometry y="26" width="250" height="24" as="geometry" />
        </mxCell>
        <mxCell id="mqnPU8PIk2e7HvB2Qb2y-115" value="" style="line;strokeWidth=1;fillColor=none;align=left;verticalAlign=middle;spacingTop=-1;spacingLeft=3;spacingRight=3;rotatable=0;labelPosition=right;points=[];portConstraint=eastwest;" vertex="1" parent="mqnPU8PIk2e7HvB2Qb2y-113">
          <mxGeometry y="50" width="250" height="10" as="geometry" />
        </mxCell>
        <mxCell id="mqnPU8PIk2e7HvB2Qb2y-116" style="edgeStyle=orthogonalEdgeStyle;rounded=0;orthogonalLoop=1;jettySize=auto;html=1;exitX=0.5;exitY=0;exitDx=0;exitDy=0;entryX=0.25;entryY=1;entryDx=0;entryDy=0;endArrow=block;endFill=0;" edge="1" parent="1" source="mqnPU8PIk2e7HvB2Qb2y-117" target="mqnPU8PIk2e7HvB2Qb2y-100">
          <mxGeometry relative="1" as="geometry" />
        </mxCell>
        <mxCell id="mqnPU8PIk2e7HvB2Qb2y-117" value="Parasite" style="swimlane;fontStyle=1;align=center;verticalAlign=top;childLayout=stackLayout;horizontal=1;startSize=26;horizontalStack=0;resizeParent=1;resizeParentMax=0;resizeLast=0;collapsible=1;marginBottom=0;fillColor=#e1d5e7;strokeColor=#9673a6;" vertex="1" parent="1">
          <mxGeometry x="77" y="1849" width="120" height="36" as="geometry" />
        </mxCell>
        <mxCell id="mqnPU8PIk2e7HvB2Qb2y-118" value="" style="line;strokeWidth=1;fillColor=none;align=left;verticalAlign=middle;spacingTop=-1;spacingLeft=3;spacingRight=3;rotatable=0;labelPosition=right;points=[];portConstraint=eastwest;" vertex="1" parent="mqnPU8PIk2e7HvB2Qb2y-117">
          <mxGeometry y="26" width="120" height="10" as="geometry" />
        </mxCell>
        <mxCell id="mqnPU8PIk2e7HvB2Qb2y-119" style="edgeStyle=orthogonalEdgeStyle;rounded=0;orthogonalLoop=1;jettySize=auto;html=1;exitX=0.5;exitY=0;exitDx=0;exitDy=0;entryX=0.75;entryY=1;entryDx=0;entryDy=0;endArrow=block;endFill=0;" edge="1" parent="1" source="mqnPU8PIk2e7HvB2Qb2y-120" target="mqnPU8PIk2e7HvB2Qb2y-100">
          <mxGeometry relative="1" as="geometry" />
        </mxCell>
        <mxCell id="mqnPU8PIk2e7HvB2Qb2y-120" value="Virus" style="swimlane;fontStyle=1;align=center;verticalAlign=top;childLayout=stackLayout;horizontal=1;startSize=26;horizontalStack=0;resizeParent=1;resizeParentMax=0;resizeLast=0;collapsible=1;marginBottom=0;fillColor=#e1d5e7;strokeColor=#9673a6;" vertex="1" parent="1">
          <mxGeometry x="202" y="1849" width="101" height="36" as="geometry" />
        </mxCell>
        <mxCell id="mqnPU8PIk2e7HvB2Qb2y-121" value="" style="line;strokeWidth=1;fillColor=none;align=left;verticalAlign=middle;spacingTop=-1;spacingLeft=3;spacingRight=3;rotatable=0;labelPosition=right;points=[];portConstraint=eastwest;" vertex="1" parent="mqnPU8PIk2e7HvB2Qb2y-120">
          <mxGeometry y="26" width="101" height="10" as="geometry" />
        </mxCell>
        <mxCell id="mqnPU8PIk2e7HvB2Qb2y-122" style="edgeStyle=orthogonalEdgeStyle;rounded=0;orthogonalLoop=1;jettySize=auto;html=1;exitX=0.5;exitY=0;exitDx=0;exitDy=0;entryX=0.75;entryY=1;entryDx=0;entryDy=0;endArrow=block;endFill=0;" edge="1" parent="1" source="mqnPU8PIk2e7HvB2Qb2y-123" target="mqnPU8PIk2e7HvB2Qb2y-106">
          <mxGeometry relative="1" as="geometry" />
        </mxCell>
        <mxCell id="mqnPU8PIk2e7HvB2Qb2y-123" value="P. vivax" style="swimlane;fontStyle=1;align=center;verticalAlign=top;childLayout=stackLayout;horizontal=1;startSize=26;horizontalStack=0;resizeParent=1;resizeParentMax=0;resizeLast=0;collapsible=1;marginBottom=0;fillColor=#e1d5e7;strokeColor=#9673a6;" vertex="1" parent="1">
          <mxGeometry x="160" y="2026" width="140" height="80" as="geometry" />
        </mxCell>
        <mxCell id="mqnPU8PIk2e7HvB2Qb2y-124" value="+ ..." style="text;strokeColor=none;fillColor=none;align=left;verticalAlign=top;spacingLeft=4;spacingRight=4;overflow=hidden;rotatable=0;points=[[0,0.5],[1,0.5]];portConstraint=eastwest;" vertex="1" parent="mqnPU8PIk2e7HvB2Qb2y-123">
          <mxGeometry y="26" width="140" height="44" as="geometry" />
        </mxCell>
        <mxCell id="mqnPU8PIk2e7HvB2Qb2y-125" value="" style="line;strokeWidth=1;fillColor=none;align=left;verticalAlign=middle;spacingTop=-1;spacingLeft=3;spacingRight=3;rotatable=0;labelPosition=right;points=[];portConstraint=eastwest;" vertex="1" parent="mqnPU8PIk2e7HvB2Qb2y-123">
          <mxGeometry y="70" width="140" height="10" as="geometry" />
        </mxCell>
        <mxCell id="mqnPU8PIk2e7HvB2Qb2y-126" value="Infection (chez hôte vertébré)" style="swimlane;fontStyle=1;align=center;verticalAlign=top;childLayout=stackLayout;horizontal=1;startSize=26;horizontalStack=0;resizeParent=1;resizeParentMax=0;resizeLast=0;collapsible=1;marginBottom=0;fillColor=#ffe6cc;strokeColor=#d79b00;" vertex="1" parent="1">
          <mxGeometry x="1238" y="1839" width="192" height="60" as="geometry" />
        </mxCell>
        <mxCell id="mqnPU8PIk2e7HvB2Qb2y-127" value="+ ... " style="text;strokeColor=none;fillColor=none;align=left;verticalAlign=top;spacingLeft=4;spacingRight=4;overflow=hidden;rotatable=0;points=[[0,0.5],[1,0.5]];portConstraint=eastwest;" vertex="1" parent="mqnPU8PIk2e7HvB2Qb2y-126">
          <mxGeometry y="26" width="192" height="24" as="geometry" />
        </mxCell>
        <mxCell id="mqnPU8PIk2e7HvB2Qb2y-128" value="" style="line;strokeWidth=1;fillColor=none;align=left;verticalAlign=middle;spacingTop=-1;spacingLeft=3;spacingRight=3;rotatable=0;labelPosition=right;points=[];portConstraint=eastwest;" vertex="1" parent="mqnPU8PIk2e7HvB2Qb2y-126">
          <mxGeometry y="50" width="192" height="10" as="geometry" />
        </mxCell>
        <mxCell id="mqnPU8PIk2e7HvB2Qb2y-129" style="edgeStyle=orthogonalEdgeStyle;rounded=0;orthogonalLoop=1;jettySize=auto;html=1;exitX=0.5;exitY=0;exitDx=0;exitDy=0;endArrow=none;endFill=0;dashed=1;entryX=0.675;entryY=0.692;entryDx=0;entryDy=0;entryPerimeter=0;" edge="1" parent="1" source="mqnPU8PIk2e7HvB2Qb2y-126" target="mqnPU8PIk2e7HvB2Qb2y-312">
          <mxGeometry relative="1" as="geometry">
            <mxPoint x="1520" y="1775" as="targetPoint" />
            <mxPoint x="1515" y="1590" as="sourcePoint" />
          </mxGeometry>
        </mxCell>
        <mxCell id="mqnPU8PIk2e7HvB2Qb2y-130" style="edgeStyle=orthogonalEdgeStyle;rounded=0;orthogonalLoop=1;jettySize=auto;html=1;exitX=0.75;exitY=0;exitDx=0;exitDy=0;entryX=0.25;entryY=1;entryDx=0;entryDy=0;endArrow=none;endFill=0;startArrow=none;" edge="1" parent="1" source="mqnPU8PIk2e7HvB2Qb2y-133" target="mqnPU8PIk2e7HvB2Qb2y-126">
          <mxGeometry relative="1" as="geometry">
            <mxPoint x="1272" y="1945" as="sourcePoint" />
          </mxGeometry>
        </mxCell>
        <mxCell id="mqnPU8PIk2e7HvB2Qb2y-131" value="&amp;lt; Génère" style="edgeLabel;html=1;align=center;verticalAlign=middle;resizable=0;points=[];" vertex="1" connectable="0" parent="mqnPU8PIk2e7HvB2Qb2y-130">
          <mxGeometry x="0.4065" y="2" relative="1" as="geometry">
            <mxPoint y="31" as="offset" />
          </mxGeometry>
        </mxCell>
        <mxCell id="mqnPU8PIk2e7HvB2Qb2y-132" style="edgeStyle=orthogonalEdgeStyle;rounded=0;orthogonalLoop=1;jettySize=auto;html=1;exitX=0.25;exitY=0;exitDx=0;exitDy=0;entryX=0.25;entryY=1;entryDx=0;entryDy=0;fontSize=17;fontColor=#EA6B66;startArrow=none;startFill=0;endArrow=block;endFill=0;" edge="1" parent="1" source="mqnPU8PIk2e7HvB2Qb2y-133" target="mqnPU8PIk2e7HvB2Qb2y-241">
          <mxGeometry relative="1" as="geometry">
            <Array as="points">
              <mxPoint x="1196" y="1646" />
              <mxPoint x="1392" y="1646" />
            </Array>
          </mxGeometry>
        </mxCell>
        <mxCell id="mqnPU8PIk2e7HvB2Qb2y-133" value="Cas symptomatique" style="swimlane;fontStyle=1;align=center;verticalAlign=top;childLayout=stackLayout;horizontal=1;startSize=26;horizontalStack=0;resizeParent=1;resizeParentMax=0;resizeLast=0;collapsible=1;marginBottom=0;fillColor=#ffe6cc;strokeColor=#d79b00;" vertex="1" parent="1">
          <mxGeometry x="1151" y="1965" width="180" height="60" as="geometry" />
        </mxCell>
        <mxCell id="mqnPU8PIk2e7HvB2Qb2y-134" value="+ ... " style="text;strokeColor=none;fillColor=none;align=left;verticalAlign=top;spacingLeft=4;spacingRight=4;overflow=hidden;rotatable=0;points=[[0,0.5],[1,0.5]];portConstraint=eastwest;" vertex="1" parent="mqnPU8PIk2e7HvB2Qb2y-133">
          <mxGeometry y="26" width="180" height="24" as="geometry" />
        </mxCell>
        <mxCell id="mqnPU8PIk2e7HvB2Qb2y-135" value="" style="line;strokeWidth=1;fillColor=none;align=left;verticalAlign=middle;spacingTop=-1;spacingLeft=3;spacingRight=3;rotatable=0;labelPosition=right;points=[];portConstraint=eastwest;" vertex="1" parent="mqnPU8PIk2e7HvB2Qb2y-133">
          <mxGeometry y="50" width="180" height="10" as="geometry" />
        </mxCell>
        <mxCell id="mqnPU8PIk2e7HvB2Qb2y-136" style="edgeStyle=orthogonalEdgeStyle;rounded=0;orthogonalLoop=1;jettySize=auto;html=1;exitX=0.25;exitY=0;exitDx=0;exitDy=0;entryX=0.75;entryY=1;entryDx=0;entryDy=0;endArrow=none;endFill=0;startArrow=none;" edge="1" parent="1" source="mqnPU8PIk2e7HvB2Qb2y-355" target="mqnPU8PIk2e7HvB2Qb2y-126">
          <mxGeometry relative="1" as="geometry">
            <mxPoint x="1393" y="1945" as="sourcePoint" />
          </mxGeometry>
        </mxCell>
        <mxCell id="mqnPU8PIk2e7HvB2Qb2y-137" value="Génère &amp;gt;" style="edgeLabel;html=1;align=center;verticalAlign=middle;resizable=0;points=[];" vertex="1" connectable="0" parent="mqnPU8PIk2e7HvB2Qb2y-136">
          <mxGeometry x="0.3623" y="-1" relative="1" as="geometry">
            <mxPoint y="29" as="offset" />
          </mxGeometry>
        </mxCell>
        <mxCell id="mqnPU8PIk2e7HvB2Qb2y-138" style="edgeStyle=elbowEdgeStyle;rounded=0;orthogonalLoop=1;jettySize=auto;html=1;exitX=0.5;exitY=0;exitDx=0;exitDy=0;entryX=0.5;entryY=1;entryDx=0;entryDy=0;endArrow=none;endFill=0;strokeColor=default;elbow=vertical;startArrow=none;" edge="1" parent="1" source="mqnPU8PIk2e7HvB2Qb2y-317" target="mqnPU8PIk2e7HvB2Qb2y-141">
          <mxGeometry relative="1" as="geometry">
            <Array as="points" />
            <mxPoint x="-352" y="1578" as="sourcePoint" />
          </mxGeometry>
        </mxCell>
        <mxCell id="mqnPU8PIk2e7HvB2Qb2y-139" style="edgeStyle=orthogonalEdgeStyle;rounded=0;orthogonalLoop=1;jettySize=auto;html=1;exitDx=0;exitDy=0;endArrow=none;endFill=0;entryX=1;entryY=0.5;entryDx=0;entryDy=0;startArrow=none;" edge="1" parent="1" source="mqnPU8PIk2e7HvB2Qb2y-306" target="mqnPU8PIk2e7HvB2Qb2y-48">
          <mxGeometry relative="1" as="geometry">
            <mxPoint x="-700" y="1825" as="targetPoint" />
          </mxGeometry>
        </mxCell>
        <mxCell id="mqnPU8PIk2e7HvB2Qb2y-141" value="Vecteur infecté" style="swimlane;fontStyle=1;align=center;verticalAlign=top;childLayout=stackLayout;horizontal=1;startSize=26;horizontalStack=0;resizeParent=1;resizeParentMax=0;resizeLast=0;collapsible=1;marginBottom=0;fillColor=#dae8fc;strokeColor=#6c8ebf;" vertex="1" parent="1">
          <mxGeometry x="-427" y="1528" width="150" height="36" as="geometry" />
        </mxCell>
        <mxCell id="mqnPU8PIk2e7HvB2Qb2y-142" value="" style="line;strokeWidth=1;fillColor=none;align=left;verticalAlign=middle;spacingTop=-1;spacingLeft=3;spacingRight=3;rotatable=0;labelPosition=right;points=[];portConstraint=eastwest;" vertex="1" parent="mqnPU8PIk2e7HvB2Qb2y-141">
          <mxGeometry y="26" width="150" height="10" as="geometry" />
        </mxCell>
        <mxCell id="mqnPU8PIk2e7HvB2Qb2y-143" style="edgeStyle=orthogonalEdgeStyle;rounded=0;orthogonalLoop=1;jettySize=auto;html=1;exitDx=0;exitDy=0;endArrow=none;endFill=0;entryX=0;entryY=0.5;entryDx=0;entryDy=0;startArrow=none;" edge="1" parent="1" source="mqnPU8PIk2e7HvB2Qb2y-315" target="mqnPU8PIk2e7HvB2Qb2y-241">
          <mxGeometry relative="1" as="geometry">
            <mxPoint x="1710" y="1595" as="targetPoint" />
          </mxGeometry>
        </mxCell>
        <mxCell id="mqnPU8PIk2e7HvB2Qb2y-144" style="edgeStyle=orthogonalEdgeStyle;rounded=0;orthogonalLoop=1;jettySize=auto;html=1;endArrow=none;endFill=0;entryX=0.5;entryY=1;entryDx=0;entryDy=0;exitX=0.75;exitY=0;exitDx=0;exitDy=0;" edge="1" parent="1" source="mqnPU8PIk2e7HvB2Qb2y-190" target="mqnPU8PIk2e7HvB2Qb2y-272">
          <mxGeometry relative="1" as="geometry">
            <mxPoint x="-940" y="1515" as="targetPoint" />
          </mxGeometry>
        </mxCell>
        <mxCell id="mqnPU8PIk2e7HvB2Qb2y-145" value="Permet&amp;nbsp; la vie et la reproduction &amp;gt;" style="edgeLabel;html=1;align=center;verticalAlign=middle;resizable=0;points=[];" vertex="1" connectable="0" parent="mqnPU8PIk2e7HvB2Qb2y-144">
          <mxGeometry x="-0.2769" y="4" relative="1" as="geometry">
            <mxPoint x="77" y="4" as="offset" />
          </mxGeometry>
        </mxCell>
        <mxCell id="mqnPU8PIk2e7HvB2Qb2y-146" style="edgeStyle=orthogonalEdgeStyle;rounded=0;orthogonalLoop=1;jettySize=auto;html=1;exitX=0.5;exitY=0;exitDx=0;exitDy=0;entryX=0.25;entryY=1;entryDx=0;entryDy=0;endArrow=block;endFill=0;" edge="1" parent="1" source="mqnPU8PIk2e7HvB2Qb2y-148" target="mqnPU8PIk2e7HvB2Qb2y-190">
          <mxGeometry relative="1" as="geometry">
            <mxPoint x="-920" y="2535" as="targetPoint" />
          </mxGeometry>
        </mxCell>
        <mxCell id="mqnPU8PIk2e7HvB2Qb2y-147" style="edgeStyle=orthogonalEdgeStyle;rounded=0;orthogonalLoop=1;jettySize=auto;html=1;exitX=1;exitY=0.5;exitDx=0;exitDy=0;endArrow=none;endFill=0;entryX=0.5;entryY=1;entryDx=0;entryDy=0;" edge="1" parent="1" source="mqnPU8PIk2e7HvB2Qb2y-191" target="mqnPU8PIk2e7HvB2Qb2y-172">
          <mxGeometry relative="1" as="geometry">
            <mxPoint x="900" y="1380" as="targetPoint" />
          </mxGeometry>
        </mxCell>
        <mxCell id="mqnPU8PIk2e7HvB2Qb2y-148" value="Environnement (composantes abiotiques)" style="swimlane;fontStyle=1;align=center;verticalAlign=top;childLayout=stackLayout;horizontal=1;startSize=26;horizontalStack=0;resizeParent=1;resizeParentMax=0;resizeLast=0;collapsible=1;marginBottom=0;fillColor=#d5e8d4;strokeColor=#82b366;" vertex="1" parent="1">
          <mxGeometry x="-1270" y="2645" width="250" height="60" as="geometry">
            <mxRectangle x="320" y="370" width="90" height="26" as="alternateBounds" />
          </mxGeometry>
        </mxCell>
        <mxCell id="mqnPU8PIk2e7HvB2Qb2y-149" value="+ ..." style="text;strokeColor=none;fillColor=none;align=left;verticalAlign=top;spacingLeft=4;spacingRight=4;overflow=hidden;rotatable=0;points=[[0,0.5],[1,0.5]];portConstraint=eastwest;" vertex="1" parent="mqnPU8PIk2e7HvB2Qb2y-148">
          <mxGeometry y="26" width="250" height="26" as="geometry" />
        </mxCell>
        <mxCell id="mqnPU8PIk2e7HvB2Qb2y-150" value="" style="line;strokeWidth=1;fillColor=none;align=left;verticalAlign=middle;spacingTop=-1;spacingLeft=3;spacingRight=3;rotatable=0;labelPosition=right;points=[];portConstraint=eastwest;" vertex="1" parent="mqnPU8PIk2e7HvB2Qb2y-148">
          <mxGeometry y="52" width="250" height="8" as="geometry" />
        </mxCell>
        <mxCell id="mqnPU8PIk2e7HvB2Qb2y-151" style="edgeStyle=orthogonalEdgeStyle;rounded=0;orthogonalLoop=1;jettySize=auto;html=1;exitX=0.5;exitY=0;exitDx=0;exitDy=0;entryX=0;entryY=0.5;entryDx=0;entryDy=0;endArrow=diamond;endFill=0;" edge="1" parent="1" source="mqnPU8PIk2e7HvB2Qb2y-152" target="mqnPU8PIk2e7HvB2Qb2y-149">
          <mxGeometry relative="1" as="geometry" />
        </mxCell>
        <mxCell id="mqnPU8PIk2e7HvB2Qb2y-152" value="Paysage" style="swimlane;fontStyle=1;align=center;verticalAlign=top;childLayout=stackLayout;horizontal=1;startSize=26;horizontalStack=0;resizeParent=1;resizeParentMax=0;resizeLast=0;collapsible=1;marginBottom=0;fillColor=#d5e8d4;strokeColor=#82b366;" vertex="1" parent="1">
          <mxGeometry x="-1398" y="2884" width="170" height="60" as="geometry">
            <mxRectangle x="320" y="370" width="90" height="26" as="alternateBounds" />
          </mxGeometry>
        </mxCell>
        <mxCell id="mqnPU8PIk2e7HvB2Qb2y-153" value="+ &quot;susceptibilité&quot; à l&#39;exposition" style="text;strokeColor=none;fillColor=none;align=left;verticalAlign=top;spacingLeft=4;spacingRight=4;overflow=hidden;rotatable=0;points=[[0,0.5],[1,0.5]];portConstraint=eastwest;" vertex="1" parent="mqnPU8PIk2e7HvB2Qb2y-152">
          <mxGeometry y="26" width="170" height="26" as="geometry" />
        </mxCell>
        <mxCell id="mqnPU8PIk2e7HvB2Qb2y-154" value="" style="line;strokeWidth=1;fillColor=none;align=left;verticalAlign=middle;spacingTop=-1;spacingLeft=3;spacingRight=3;rotatable=0;labelPosition=right;points=[];portConstraint=eastwest;" vertex="1" parent="mqnPU8PIk2e7HvB2Qb2y-152">
          <mxGeometry y="52" width="170" height="8" as="geometry" />
        </mxCell>
        <mxCell id="mqnPU8PIk2e7HvB2Qb2y-155" style="edgeStyle=orthogonalEdgeStyle;rounded=0;orthogonalLoop=1;jettySize=auto;html=1;exitX=0.25;exitY=0;exitDx=0;exitDy=0;entryX=0.75;entryY=1;entryDx=0;entryDy=0;endArrow=diamond;endFill=0;" edge="1" parent="1" source="mqnPU8PIk2e7HvB2Qb2y-35" target="mqnPU8PIk2e7HvB2Qb2y-152">
          <mxGeometry relative="1" as="geometry" />
        </mxCell>
        <mxCell id="mqnPU8PIk2e7HvB2Qb2y-156" style="edgeStyle=orthogonalEdgeStyle;rounded=0;orthogonalLoop=1;jettySize=auto;html=1;exitX=0.5;exitY=0;exitDx=0;exitDy=0;entryX=0.25;entryY=1;entryDx=0;entryDy=0;endArrow=diamond;endFill=0;" edge="1" parent="1" source="mqnPU8PIk2e7HvB2Qb2y-158" target="mqnPU8PIk2e7HvB2Qb2y-152">
          <mxGeometry relative="1" as="geometry" />
        </mxCell>
        <mxCell id="mqnPU8PIk2e7HvB2Qb2y-157" style="edgeStyle=orthogonalEdgeStyle;rounded=0;orthogonalLoop=1;jettySize=auto;html=1;exitX=0.5;exitY=1;exitDx=0;exitDy=0;entryX=0.5;entryY=1;entryDx=0;entryDy=0;endArrow=none;endFill=0;" edge="1" parent="1" source="mqnPU8PIk2e7HvB2Qb2y-158" target="mqnPU8PIk2e7HvB2Qb2y-73">
          <mxGeometry relative="1" as="geometry">
            <Array as="points">
              <mxPoint x="-1500" y="3625" />
              <mxPoint x="-175" y="3625" />
            </Array>
          </mxGeometry>
        </mxCell>
        <mxCell id="mqnPU8PIk2e7HvB2Qb2y-158" value="Relief" style="swimlane;fontStyle=1;align=center;verticalAlign=top;childLayout=stackLayout;horizontal=1;startSize=26;horizontalStack=0;resizeParent=1;resizeParentMax=0;resizeLast=0;collapsible=1;marginBottom=0;fillColor=#d5e8d4;strokeColor=#82b366;" vertex="1" parent="1">
          <mxGeometry x="-1580" y="3003" width="160" height="60" as="geometry">
            <mxRectangle x="320" y="370" width="90" height="26" as="alternateBounds" />
          </mxGeometry>
        </mxCell>
        <mxCell id="mqnPU8PIk2e7HvB2Qb2y-159" value="+ ..." style="text;strokeColor=none;fillColor=none;align=left;verticalAlign=top;spacingLeft=4;spacingRight=4;overflow=hidden;rotatable=0;points=[[0,0.5],[1,0.5]];portConstraint=eastwest;" vertex="1" parent="mqnPU8PIk2e7HvB2Qb2y-158">
          <mxGeometry y="26" width="160" height="26" as="geometry" />
        </mxCell>
        <mxCell id="mqnPU8PIk2e7HvB2Qb2y-160" value="" style="line;strokeWidth=1;fillColor=none;align=left;verticalAlign=middle;spacingTop=-1;spacingLeft=3;spacingRight=3;rotatable=0;labelPosition=right;points=[];portConstraint=eastwest;" vertex="1" parent="mqnPU8PIk2e7HvB2Qb2y-158">
          <mxGeometry y="52" width="160" height="8" as="geometry" />
        </mxCell>
        <mxCell id="mqnPU8PIk2e7HvB2Qb2y-161" value="Ressource trophique" style="swimlane;fontStyle=1;align=center;verticalAlign=top;childLayout=stackLayout;horizontal=1;startSize=26;horizontalStack=0;resizeParent=1;resizeParentMax=0;resizeLast=0;collapsible=1;marginBottom=0;fillColor=#d5e8d4;strokeColor=#82b366;" vertex="1" parent="1">
          <mxGeometry x="-501" y="2701" width="140" height="60" as="geometry">
            <mxRectangle x="320" y="370" width="90" height="26" as="alternateBounds" />
          </mxGeometry>
        </mxCell>
        <mxCell id="mqnPU8PIk2e7HvB2Qb2y-162" value="+ ..." style="text;strokeColor=none;fillColor=none;align=left;verticalAlign=top;spacingLeft=4;spacingRight=4;overflow=hidden;rotatable=0;points=[[0,0.5],[1,0.5]];portConstraint=eastwest;" vertex="1" parent="mqnPU8PIk2e7HvB2Qb2y-161">
          <mxGeometry y="26" width="140" height="26" as="geometry" />
        </mxCell>
        <mxCell id="mqnPU8PIk2e7HvB2Qb2y-163" value="" style="line;strokeWidth=1;fillColor=none;align=left;verticalAlign=middle;spacingTop=-1;spacingLeft=3;spacingRight=3;rotatable=0;labelPosition=right;points=[];portConstraint=eastwest;" vertex="1" parent="mqnPU8PIk2e7HvB2Qb2y-161">
          <mxGeometry y="52" width="140" height="8" as="geometry" />
        </mxCell>
        <mxCell id="mqnPU8PIk2e7HvB2Qb2y-164" style="edgeStyle=orthogonalEdgeStyle;rounded=0;orthogonalLoop=1;jettySize=auto;html=1;entryX=1;entryY=0.5;entryDx=0;entryDy=0;endArrow=block;endFill=0;exitX=1;exitY=0.5;exitDx=0;exitDy=0;" edge="1" parent="1" source="mqnPU8PIk2e7HvB2Qb2y-241" target="mqnPU8PIk2e7HvB2Qb2y-162">
          <mxGeometry relative="1" as="geometry" />
        </mxCell>
        <mxCell id="mqnPU8PIk2e7HvB2Qb2y-165" style="edgeStyle=orthogonalEdgeStyle;rounded=0;orthogonalLoop=1;jettySize=auto;html=1;exitX=0;exitY=0.25;exitDx=0;exitDy=0;entryX=1;entryY=0.5;entryDx=0;entryDy=0;endArrow=none;endFill=0;" edge="1" parent="1" source="mqnPU8PIk2e7HvB2Qb2y-166" target="mqnPU8PIk2e7HvB2Qb2y-44">
          <mxGeometry relative="1" as="geometry" />
        </mxCell>
        <mxCell id="mqnPU8PIk2e7HvB2Qb2y-166" value="Changement climatique" style="swimlane;fontStyle=1;align=center;verticalAlign=top;childLayout=stackLayout;horizontal=1;startSize=26;horizontalStack=0;resizeParent=1;resizeParentMax=0;resizeLast=0;collapsible=1;marginBottom=0;fillColor=#d5e8d4;strokeColor=#82b366;" vertex="1" parent="1">
          <mxGeometry x="-559" y="3026" width="160" height="60" as="geometry">
            <mxRectangle x="320" y="370" width="90" height="26" as="alternateBounds" />
          </mxGeometry>
        </mxCell>
        <mxCell id="mqnPU8PIk2e7HvB2Qb2y-167" value="+ ..." style="text;strokeColor=none;fillColor=none;align=left;verticalAlign=top;spacingLeft=4;spacingRight=4;overflow=hidden;rotatable=0;points=[[0,0.5],[1,0.5]];portConstraint=eastwest;" vertex="1" parent="mqnPU8PIk2e7HvB2Qb2y-166">
          <mxGeometry y="26" width="160" height="26" as="geometry" />
        </mxCell>
        <mxCell id="mqnPU8PIk2e7HvB2Qb2y-168" value="" style="line;strokeWidth=1;fillColor=none;align=left;verticalAlign=middle;spacingTop=-1;spacingLeft=3;spacingRight=3;rotatable=0;labelPosition=right;points=[];portConstraint=eastwest;" vertex="1" parent="mqnPU8PIk2e7HvB2Qb2y-166">
          <mxGeometry y="52" width="160" height="8" as="geometry" />
        </mxCell>
        <mxCell id="mqnPU8PIk2e7HvB2Qb2y-169" style="edgeStyle=orthogonalEdgeStyle;rounded=0;orthogonalLoop=1;jettySize=auto;html=1;exitX=0;exitY=0.5;exitDx=0;exitDy=0;endArrow=none;endFill=0;" edge="1" parent="1" source="mqnPU8PIk2e7HvB2Qb2y-167">
          <mxGeometry relative="1" as="geometry">
            <mxPoint x="-560.0689655172409" y="3057.068965517241" as="targetPoint" />
          </mxGeometry>
        </mxCell>
        <mxCell id="mqnPU8PIk2e7HvB2Qb2y-170" style="edgeStyle=orthogonalEdgeStyle;rounded=0;orthogonalLoop=1;jettySize=auto;html=1;entryX=1;entryY=0.25;entryDx=0;entryDy=0;endArrow=none;endFill=0;startArrow=none;" edge="1" parent="1" source="mqnPU8PIk2e7HvB2Qb2y-289" target="mqnPU8PIk2e7HvB2Qb2y-39">
          <mxGeometry relative="1" as="geometry" />
        </mxCell>
        <mxCell id="mqnPU8PIk2e7HvB2Qb2y-171" style="edgeStyle=orthogonalEdgeStyle;rounded=0;orthogonalLoop=1;jettySize=auto;html=1;entryX=0.75;entryY=1;entryDx=0;entryDy=0;endArrow=none;endFill=0;exitX=0.5;exitY=0;exitDx=0;exitDy=0;" edge="1" parent="1" source="mqnPU8PIk2e7HvB2Qb2y-172" target="mqnPU8PIk2e7HvB2Qb2y-2">
          <mxGeometry relative="1" as="geometry">
            <mxPoint x="934.9999999999991" y="698" as="targetPoint" />
          </mxGeometry>
        </mxCell>
        <mxCell id="mqnPU8PIk2e7HvB2Qb2y-172" value="Lieu" style="swimlane;fontStyle=1;align=center;verticalAlign=top;childLayout=stackLayout;horizontal=1;startSize=26;horizontalStack=0;resizeParent=1;resizeParentMax=0;resizeLast=0;collapsible=1;marginBottom=0;fillColor=#eeeeee;strokeColor=#36393d;" vertex="1" parent="1">
          <mxGeometry x="788" y="715" width="170" height="98" as="geometry">
            <mxRectangle x="600" y="310" width="90" height="26" as="alternateBounds" />
          </mxGeometry>
        </mxCell>
        <mxCell id="mqnPU8PIk2e7HvB2Qb2y-173" value="+ nom: char&#xa;+ lat: real&#xa;+ long: real&#xa;+ susceptibilité à l&#39;exposition" style="text;strokeColor=none;fillColor=none;align=left;verticalAlign=top;spacingLeft=4;spacingRight=4;overflow=hidden;rotatable=0;points=[[0,0.5],[1,0.5]];portConstraint=eastwest;" vertex="1" parent="mqnPU8PIk2e7HvB2Qb2y-172">
          <mxGeometry y="26" width="170" height="64" as="geometry" />
        </mxCell>
        <mxCell id="mqnPU8PIk2e7HvB2Qb2y-174" value="" style="line;strokeWidth=1;fillColor=none;align=left;verticalAlign=middle;spacingTop=-1;spacingLeft=3;spacingRight=3;rotatable=0;labelPosition=right;points=[];portConstraint=eastwest;" vertex="1" parent="mqnPU8PIk2e7HvB2Qb2y-172">
          <mxGeometry y="90" width="170" height="8" as="geometry" />
        </mxCell>
        <mxCell id="mqnPU8PIk2e7HvB2Qb2y-175" style="edgeStyle=orthogonalEdgeStyle;rounded=0;orthogonalLoop=1;jettySize=auto;html=1;entryX=0.5;entryY=1;entryDx=0;entryDy=0;endArrow=none;endFill=0;" edge="1" parent="1" source="mqnPU8PIk2e7HvB2Qb2y-176" target="mqnPU8PIk2e7HvB2Qb2y-80">
          <mxGeometry relative="1" as="geometry" />
        </mxCell>
        <mxCell id="mqnPU8PIk2e7HvB2Qb2y-176" value="Type activité" style="swimlane;fontStyle=1;align=center;verticalAlign=top;childLayout=stackLayout;horizontal=1;startSize=26;horizontalStack=0;resizeParent=1;resizeParentMax=0;resizeLast=0;collapsible=1;marginBottom=0;" vertex="1" parent="1">
          <mxGeometry x="501" y="3315" width="100" height="60" as="geometry">
            <mxRectangle x="320" y="370" width="90" height="26" as="alternateBounds" />
          </mxGeometry>
        </mxCell>
        <mxCell id="mqnPU8PIk2e7HvB2Qb2y-177" value="+ label: char" style="text;strokeColor=none;fillColor=none;align=left;verticalAlign=top;spacingLeft=4;spacingRight=4;overflow=hidden;rotatable=0;points=[[0,0.5],[1,0.5]];portConstraint=eastwest;" vertex="1" parent="mqnPU8PIk2e7HvB2Qb2y-176">
          <mxGeometry y="26" width="100" height="26" as="geometry" />
        </mxCell>
        <mxCell id="mqnPU8PIk2e7HvB2Qb2y-178" value="" style="line;strokeWidth=1;fillColor=none;align=left;verticalAlign=middle;spacingTop=-1;spacingLeft=3;spacingRight=3;rotatable=0;labelPosition=right;points=[];portConstraint=eastwest;" vertex="1" parent="mqnPU8PIk2e7HvB2Qb2y-176">
          <mxGeometry y="52" width="100" height="8" as="geometry" />
        </mxCell>
        <mxCell id="mqnPU8PIk2e7HvB2Qb2y-179" style="edgeStyle=orthogonalEdgeStyle;rounded=0;orthogonalLoop=1;jettySize=auto;html=1;exitX=0.5;exitY=0;exitDx=0;exitDy=0;endArrow=none;endFill=0;" edge="1" parent="1" source="mqnPU8PIk2e7HvB2Qb2y-180" target="mqnPU8PIk2e7HvB2Qb2y-296">
          <mxGeometry relative="1" as="geometry">
            <mxPoint x="411" y="3425" as="targetPoint" />
          </mxGeometry>
        </mxCell>
        <mxCell id="mqnPU8PIk2e7HvB2Qb2y-180" value="Orp" style="swimlane;fontStyle=4;childLayout=stackLayout;horizontal=1;startSize=26;fillColor=none;horizontalStack=0;resizeParent=1;resizeParentMax=0;resizeLast=0;collapsible=1;marginBottom=0;fontFamily=Helvetica;fontSize=11;fontColor=default;" vertex="1" parent="1">
          <mxGeometry x="341" y="3518" width="110" height="52" as="geometry">
            <mxRectangle x="610" y="510" width="40" height="26" as="alternateBounds" />
          </mxGeometry>
        </mxCell>
        <mxCell id="mqnPU8PIk2e7HvB2Qb2y-181" value="label=&quot;Orpaillage&quot;" style="text;strokeColor=none;fillColor=none;align=left;verticalAlign=top;spacingLeft=4;spacingRight=4;overflow=hidden;rotatable=0;points=[[0,0.5],[1,0.5]];portConstraint=eastwest;fontFamily=Helvetica;fontSize=11;fontColor=default;" vertex="1" parent="mqnPU8PIk2e7HvB2Qb2y-180">
          <mxGeometry y="26" width="110" height="26" as="geometry" />
        </mxCell>
        <mxCell id="mqnPU8PIk2e7HvB2Qb2y-182" style="edgeStyle=orthogonalEdgeStyle;rounded=0;orthogonalLoop=1;jettySize=auto;html=1;exitX=0.5;exitY=0;exitDx=0;exitDy=0;endArrow=none;endFill=0;entryX=0.498;entryY=1.029;entryDx=0;entryDy=0;entryPerimeter=0;" edge="1" parent="1" source="mqnPU8PIk2e7HvB2Qb2y-183" target="mqnPU8PIk2e7HvB2Qb2y-296">
          <mxGeometry relative="1" as="geometry">
            <mxPoint x="541" y="3485" as="targetPoint" />
          </mxGeometry>
        </mxCell>
        <mxCell id="mqnPU8PIk2e7HvB2Qb2y-183" value="Res" style="swimlane;fontStyle=4;childLayout=stackLayout;horizontal=1;startSize=26;fillColor=none;horizontalStack=0;resizeParent=1;resizeParentMax=0;resizeLast=0;collapsible=1;marginBottom=0;fontFamily=Helvetica;fontSize=11;fontColor=default;" vertex="1" parent="1">
          <mxGeometry x="467" y="3518" width="80" height="52" as="geometry">
            <mxRectangle x="610" y="510" width="40" height="26" as="alternateBounds" />
          </mxGeometry>
        </mxCell>
        <mxCell id="mqnPU8PIk2e7HvB2Qb2y-184" value="label=&quot;Réside&quot;" style="text;strokeColor=none;fillColor=none;align=left;verticalAlign=top;spacingLeft=4;spacingRight=4;overflow=hidden;rotatable=0;points=[[0,0.5],[1,0.5]];portConstraint=eastwest;fontFamily=Helvetica;fontSize=11;fontColor=default;" vertex="1" parent="mqnPU8PIk2e7HvB2Qb2y-183">
          <mxGeometry y="26" width="80" height="26" as="geometry" />
        </mxCell>
        <mxCell id="mqnPU8PIk2e7HvB2Qb2y-185" style="edgeStyle=orthogonalEdgeStyle;rounded=0;orthogonalLoop=1;jettySize=auto;html=1;exitX=0.5;exitY=0;exitDx=0;exitDy=0;endArrow=none;endFill=0;entryX=1;entryY=0.5;entryDx=0;entryDy=0;" edge="1" parent="1" source="mqnPU8PIk2e7HvB2Qb2y-186" target="mqnPU8PIk2e7HvB2Qb2y-296">
          <mxGeometry relative="1" as="geometry">
            <mxPoint x="607" y="3391" as="targetPoint" />
          </mxGeometry>
        </mxCell>
        <mxCell id="mqnPU8PIk2e7HvB2Qb2y-186" value="Pec" style="swimlane;fontStyle=4;childLayout=stackLayout;horizontal=1;startSize=26;fillColor=none;horizontalStack=0;resizeParent=1;resizeParentMax=0;resizeLast=0;collapsible=1;marginBottom=0;fontFamily=Helvetica;fontSize=11;fontColor=default;" vertex="1" parent="1">
          <mxGeometry x="561" y="3518" width="80" height="52" as="geometry">
            <mxRectangle x="610" y="510" width="40" height="26" as="alternateBounds" />
          </mxGeometry>
        </mxCell>
        <mxCell id="mqnPU8PIk2e7HvB2Qb2y-187" value="label=&quot;Pêche&quot;" style="text;strokeColor=none;fillColor=none;align=left;verticalAlign=top;spacingLeft=4;spacingRight=4;overflow=hidden;rotatable=0;points=[[0,0.5],[1,0.5]];portConstraint=eastwest;fontFamily=Helvetica;fontSize=11;fontColor=default;" vertex="1" parent="mqnPU8PIk2e7HvB2Qb2y-186">
          <mxGeometry y="26" width="80" height="26" as="geometry" />
        </mxCell>
        <mxCell id="mqnPU8PIk2e7HvB2Qb2y-188" style="edgeStyle=orthogonalEdgeStyle;rounded=0;orthogonalLoop=1;jettySize=auto;html=1;entryX=0.75;entryY=1;entryDx=0;entryDy=0;endArrow=none;endFill=0;exitX=1;exitY=0.25;exitDx=0;exitDy=0;" edge="1" parent="1" source="mqnPU8PIk2e7HvB2Qb2y-80" target="mqnPU8PIk2e7HvB2Qb2y-172">
          <mxGeometry relative="1" as="geometry" />
        </mxCell>
        <mxCell id="mqnPU8PIk2e7HvB2Qb2y-189" style="edgeStyle=orthogonalEdgeStyle;rounded=0;orthogonalLoop=1;jettySize=auto;html=1;exitX=0.25;exitY=0;exitDx=0;exitDy=0;entryX=0.5;entryY=1;entryDx=0;entryDy=0;endArrow=diamond;endFill=0;" edge="1" parent="1" source="mqnPU8PIk2e7HvB2Qb2y-190" target="mqnPU8PIk2e7HvB2Qb2y-266">
          <mxGeometry relative="1" as="geometry" />
        </mxCell>
        <mxCell id="mqnPU8PIk2e7HvB2Qb2y-190" value="Habitat" style="swimlane;fontStyle=1;align=center;verticalAlign=top;childLayout=stackLayout;horizontal=1;startSize=26;horizontalStack=0;resizeParent=1;resizeParentMax=0;resizeLast=0;collapsible=1;marginBottom=0;fillColor=#d5e8d4;strokeColor=#82b366;" vertex="1" parent="1">
          <mxGeometry x="-1030" y="2406" width="140" height="60" as="geometry">
            <mxRectangle x="320" y="370" width="90" height="26" as="alternateBounds" />
          </mxGeometry>
        </mxCell>
        <mxCell id="mqnPU8PIk2e7HvB2Qb2y-191" value="+ qualité: real" style="text;strokeColor=none;fillColor=none;align=left;verticalAlign=top;spacingLeft=4;spacingRight=4;overflow=hidden;rotatable=0;points=[[0,0.5],[1,0.5]];portConstraint=eastwest;" vertex="1" parent="mqnPU8PIk2e7HvB2Qb2y-190">
          <mxGeometry y="26" width="140" height="26" as="geometry" />
        </mxCell>
        <mxCell id="mqnPU8PIk2e7HvB2Qb2y-192" value="" style="line;strokeWidth=1;fillColor=none;align=left;verticalAlign=middle;spacingTop=-1;spacingLeft=3;spacingRight=3;rotatable=0;labelPosition=right;points=[];portConstraint=eastwest;" vertex="1" parent="mqnPU8PIk2e7HvB2Qb2y-190">
          <mxGeometry y="52" width="140" height="8" as="geometry" />
        </mxCell>
        <mxCell id="mqnPU8PIk2e7HvB2Qb2y-193" style="edgeStyle=orthogonalEdgeStyle;rounded=0;orthogonalLoop=1;jettySize=auto;html=1;endArrow=block;endFill=0;entryX=0.75;entryY=1;entryDx=0;entryDy=0;exitX=0.5;exitY=0;exitDx=0;exitDy=0;" edge="1" parent="1" source="mqnPU8PIk2e7HvB2Qb2y-194" target="mqnPU8PIk2e7HvB2Qb2y-190">
          <mxGeometry relative="1" as="geometry">
            <mxPoint x="-840" y="2535" as="targetPoint" />
          </mxGeometry>
        </mxCell>
        <mxCell id="mqnPU8PIk2e7HvB2Qb2y-194" value="Composantes biotiques" style="swimlane;fontStyle=1;align=center;verticalAlign=top;childLayout=stackLayout;horizontal=1;startSize=26;horizontalStack=0;resizeParent=1;resizeParentMax=0;resizeLast=0;collapsible=1;marginBottom=0;fillColor=#d5e8d4;strokeColor=#82b366;" vertex="1" parent="1">
          <mxGeometry x="-860" y="2645" width="160" height="60" as="geometry">
            <mxRectangle x="320" y="370" width="90" height="26" as="alternateBounds" />
          </mxGeometry>
        </mxCell>
        <mxCell id="mqnPU8PIk2e7HvB2Qb2y-195" value="+ ..." style="text;strokeColor=none;fillColor=none;align=left;verticalAlign=top;spacingLeft=4;spacingRight=4;overflow=hidden;rotatable=0;points=[[0,0.5],[1,0.5]];portConstraint=eastwest;" vertex="1" parent="mqnPU8PIk2e7HvB2Qb2y-194">
          <mxGeometry y="26" width="160" height="26" as="geometry" />
        </mxCell>
        <mxCell id="mqnPU8PIk2e7HvB2Qb2y-196" value="" style="line;strokeWidth=1;fillColor=none;align=left;verticalAlign=middle;spacingTop=-1;spacingLeft=3;spacingRight=3;rotatable=0;labelPosition=right;points=[];portConstraint=eastwest;" vertex="1" parent="mqnPU8PIk2e7HvB2Qb2y-194">
          <mxGeometry y="52" width="160" height="8" as="geometry" />
        </mxCell>
        <mxCell id="mqnPU8PIk2e7HvB2Qb2y-197" style="edgeStyle=orthogonalEdgeStyle;rounded=0;orthogonalLoop=1;jettySize=auto;html=1;entryX=0.75;entryY=1;entryDx=0;entryDy=0;endArrow=diamond;endFill=0;" edge="1" parent="1" source="mqnPU8PIk2e7HvB2Qb2y-162" target="mqnPU8PIk2e7HvB2Qb2y-194">
          <mxGeometry relative="1" as="geometry" />
        </mxCell>
        <mxCell id="mqnPU8PIk2e7HvB2Qb2y-198" style="edgeStyle=orthogonalEdgeStyle;rounded=0;orthogonalLoop=1;jettySize=auto;html=1;exitX=0.5;exitY=0;exitDx=0;exitDy=0;entryX=0.25;entryY=1;entryDx=0;entryDy=0;endArrow=diamond;endFill=0;" edge="1" parent="1" source="mqnPU8PIk2e7HvB2Qb2y-199" target="mqnPU8PIk2e7HvB2Qb2y-194">
          <mxGeometry relative="1" as="geometry" />
        </mxCell>
        <mxCell id="mqnPU8PIk2e7HvB2Qb2y-199" value="Prédateur" style="swimlane;fontStyle=1;align=center;verticalAlign=top;childLayout=stackLayout;horizontal=1;startSize=26;horizontalStack=0;resizeParent=1;resizeParentMax=0;resizeLast=0;collapsible=1;marginBottom=0;fillColor=#d5e8d4;strokeColor=#82b366;" vertex="1" parent="1">
          <mxGeometry x="-957" y="2745" width="140" height="60" as="geometry">
            <mxRectangle x="320" y="370" width="90" height="26" as="alternateBounds" />
          </mxGeometry>
        </mxCell>
        <mxCell id="mqnPU8PIk2e7HvB2Qb2y-200" value="+ ..." style="text;strokeColor=none;fillColor=none;align=left;verticalAlign=top;spacingLeft=4;spacingRight=4;overflow=hidden;rotatable=0;points=[[0,0.5],[1,0.5]];portConstraint=eastwest;" vertex="1" parent="mqnPU8PIk2e7HvB2Qb2y-199">
          <mxGeometry y="26" width="140" height="26" as="geometry" />
        </mxCell>
        <mxCell id="mqnPU8PIk2e7HvB2Qb2y-201" value="" style="line;strokeWidth=1;fillColor=none;align=left;verticalAlign=middle;spacingTop=-1;spacingLeft=3;spacingRight=3;rotatable=0;labelPosition=right;points=[];portConstraint=eastwest;" vertex="1" parent="mqnPU8PIk2e7HvB2Qb2y-199">
          <mxGeometry y="52" width="140" height="8" as="geometry" />
        </mxCell>
        <mxCell id="mqnPU8PIk2e7HvB2Qb2y-202" style="edgeStyle=orthogonalEdgeStyle;rounded=0;orthogonalLoop=1;jettySize=auto;html=1;exitX=1;exitY=0.75;exitDx=0;exitDy=0;endArrow=none;endFill=0;entryX=0.5;entryY=1;entryDx=0;entryDy=0;" edge="1" parent="1" source="mqnPU8PIk2e7HvB2Qb2y-80" target="mqnPU8PIk2e7HvB2Qb2y-18">
          <mxGeometry relative="1" as="geometry">
            <mxPoint x="2100" y="1575" as="targetPoint" />
            <mxPoint x="631" y="3244" as="sourcePoint" />
          </mxGeometry>
        </mxCell>
        <mxCell id="mqnPU8PIk2e7HvB2Qb2y-211" style="edgeStyle=orthogonalEdgeStyle;rounded=0;orthogonalLoop=1;jettySize=auto;html=1;exitX=0.5;exitY=1;exitDx=0;exitDy=0;entryX=0.5;entryY=0;entryDx=0;entryDy=0;endArrow=none;endFill=0;dashed=1;" edge="1" parent="1" source="mqnPU8PIk2e7HvB2Qb2y-213" target="mqnPU8PIk2e7HvB2Qb2y-10">
          <mxGeometry relative="1" as="geometry">
            <mxPoint x="700" y="220.00000000000045" as="targetPoint" />
          </mxGeometry>
        </mxCell>
        <mxCell id="mqnPU8PIk2e7HvB2Qb2y-213" value="Risque de piqûre infectante (de transmission)" style="swimlane;fontStyle=1;align=center;verticalAlign=top;childLayout=stackLayout;horizontal=1;startSize=26;horizontalStack=0;resizeParent=1;resizeParentMax=0;resizeLast=0;collapsible=1;marginBottom=0;fillColor=#f8cecc;strokeColor=#b85450;" vertex="1" parent="1">
          <mxGeometry x="555" y="30" width="290" height="34" as="geometry" />
        </mxCell>
        <mxCell id="mqnPU8PIk2e7HvB2Qb2y-214" value="" style="line;strokeWidth=1;fillColor=none;align=left;verticalAlign=middle;spacingTop=-1;spacingLeft=3;spacingRight=3;rotatable=0;labelPosition=right;points=[];portConstraint=eastwest;" vertex="1" parent="mqnPU8PIk2e7HvB2Qb2y-213">
          <mxGeometry y="26" width="290" height="8" as="geometry" />
        </mxCell>
        <mxCell id="mqnPU8PIk2e7HvB2Qb2y-230" value="généralise" style="text;html=1;align=center;verticalAlign=middle;resizable=0;points=[];autosize=1;strokeColor=none;fillColor=none;" vertex="1" parent="1">
          <mxGeometry x="-1220" y="3131" width="80" height="30" as="geometry" />
        </mxCell>
        <mxCell id="mqnPU8PIk2e7HvB2Qb2y-231" style="edgeStyle=orthogonalEdgeStyle;rounded=0;orthogonalLoop=1;jettySize=auto;html=1;exitX=1;exitY=0.25;exitDx=0;exitDy=0;endArrow=none;endFill=0;" edge="1" parent="1" source="mqnPU8PIk2e7HvB2Qb2y-232">
          <mxGeometry relative="1" as="geometry">
            <mxPoint x="-1180" y="3345" as="targetPoint" />
          </mxGeometry>
        </mxCell>
        <mxCell id="mqnPU8PIk2e7HvB2Qb2y-232" value="Pât" style="swimlane;fontStyle=4;childLayout=stackLayout;horizontal=1;startSize=26;fillColor=none;horizontalStack=0;resizeParent=1;resizeParentMax=0;resizeLast=0;collapsible=1;marginBottom=0;fontFamily=Helvetica;fontSize=11;fontColor=default;" vertex="1" parent="1">
          <mxGeometry x="-1370" y="3366" width="110" height="52" as="geometry">
            <mxRectangle x="610" y="510" width="40" height="26" as="alternateBounds" />
          </mxGeometry>
        </mxCell>
        <mxCell id="mqnPU8PIk2e7HvB2Qb2y-233" value="label=&quot;Pâturage&quot;" style="text;strokeColor=none;fillColor=none;align=left;verticalAlign=top;spacingLeft=4;spacingRight=4;overflow=hidden;rotatable=0;points=[[0,0.5],[1,0.5]];portConstraint=eastwest;fontFamily=Helvetica;fontSize=11;fontColor=default;" vertex="1" parent="mqnPU8PIk2e7HvB2Qb2y-232">
          <mxGeometry y="26" width="110" height="26" as="geometry" />
        </mxCell>
        <mxCell id="mqnPU8PIk2e7HvB2Qb2y-234" value="&lt;u&gt;&amp;lt; généralise&lt;/u&gt;" style="text;html=1;align=center;verticalAlign=middle;resizable=0;points=[];autosize=1;strokeColor=none;fillColor=none;" vertex="1" parent="1">
          <mxGeometry x="-1264" y="3353" width="90" height="30" as="geometry" />
        </mxCell>
        <mxCell id="mqnPU8PIk2e7HvB2Qb2y-235" value="Enjeu" style="swimlane;fontStyle=1;align=center;verticalAlign=top;childLayout=stackLayout;horizontal=1;startSize=26;horizontalStack=0;resizeParent=1;resizeParentMax=0;resizeLast=0;collapsible=1;marginBottom=0;fillColor=#f0a30a;strokeColor=#BD7000;fontColor=#000000;" vertex="1" parent="1">
          <mxGeometry x="1222" y="355" width="180" height="58" as="geometry" />
        </mxCell>
        <mxCell id="mqnPU8PIk2e7HvB2Qb2y-236" value="+ vulnérabilité " style="text;strokeColor=none;fillColor=none;align=left;verticalAlign=top;spacingLeft=4;spacingRight=4;overflow=hidden;rotatable=0;points=[[0,0.5],[1,0.5]];portConstraint=eastwest;" vertex="1" parent="mqnPU8PIk2e7HvB2Qb2y-235">
          <mxGeometry y="26" width="180" height="24" as="geometry" />
        </mxCell>
        <mxCell id="mqnPU8PIk2e7HvB2Qb2y-237" value="" style="line;strokeWidth=1;fillColor=none;align=left;verticalAlign=middle;spacingTop=-1;spacingLeft=3;spacingRight=3;rotatable=0;labelPosition=right;points=[];portConstraint=eastwest;" vertex="1" parent="mqnPU8PIk2e7HvB2Qb2y-235">
          <mxGeometry y="50" width="180" height="8" as="geometry" />
        </mxCell>
        <mxCell id="mqnPU8PIk2e7HvB2Qb2y-238" value="Infection (chez vecteur)" style="swimlane;fontStyle=1;align=center;verticalAlign=top;childLayout=stackLayout;horizontal=1;startSize=26;horizontalStack=0;resizeParent=1;resizeParentMax=0;resizeLast=0;collapsible=1;marginBottom=0;" vertex="1" parent="1">
          <mxGeometry x="-425" y="1649" width="146" height="36" as="geometry" />
        </mxCell>
        <mxCell id="mqnPU8PIk2e7HvB2Qb2y-239" value="" style="line;strokeWidth=1;fillColor=none;align=left;verticalAlign=middle;spacingTop=-1;spacingLeft=3;spacingRight=3;rotatable=0;labelPosition=right;points=[];portConstraint=eastwest;" vertex="1" parent="mqnPU8PIk2e7HvB2Qb2y-238">
          <mxGeometry y="26" width="146" height="10" as="geometry" />
        </mxCell>
        <mxCell id="mqnPU8PIk2e7HvB2Qb2y-240" style="edgeStyle=elbowEdgeStyle;rounded=0;orthogonalLoop=1;jettySize=auto;html=1;strokeColor=default;fontFamily=Helvetica;fontSize=12;endArrow=none;endFill=0;dashed=1;exitX=0.5;exitY=1;exitDx=0;exitDy=0;entryX=0.479;entryY=0.404;entryDx=0;entryDy=0;entryPerimeter=0;" edge="1" parent="1" source="mqnPU8PIk2e7HvB2Qb2y-238" target="mqnPU8PIk2e7HvB2Qb2y-306">
          <mxGeometry relative="1" as="geometry">
            <mxPoint x="-360" y="1755" as="targetPoint" />
          </mxGeometry>
        </mxCell>
        <mxCell id="mqnPU8PIk2e7HvB2Qb2y-241" value="Hôte vertébré" style="swimlane;fontStyle=1;align=center;verticalAlign=top;childLayout=stackLayout;horizontal=1;startSize=26;horizontalStack=0;resizeParent=1;resizeParentMax=0;resizeLast=0;collapsible=1;marginBottom=0;fillColor=#ffe6cc;strokeColor=#d79b00;" vertex="1" parent="1">
          <mxGeometry x="1357" y="1521" width="140" height="34" as="geometry" />
        </mxCell>
        <mxCell id="mqnPU8PIk2e7HvB2Qb2y-242" value="" style="line;strokeWidth=1;fillColor=none;align=left;verticalAlign=middle;spacingTop=-1;spacingLeft=3;spacingRight=3;rotatable=0;labelPosition=right;points=[];portConstraint=eastwest;" vertex="1" parent="mqnPU8PIk2e7HvB2Qb2y-241">
          <mxGeometry y="26" width="140" height="8" as="geometry" />
        </mxCell>
        <mxCell id="mqnPU8PIk2e7HvB2Qb2y-243" style="edgeStyle=orthogonalEdgeStyle;rounded=0;orthogonalLoop=1;jettySize=auto;html=1;endArrow=block;endFill=0;exitX=0.003;exitY=0.085;exitDx=0;exitDy=0;exitPerimeter=0;entryX=1;entryY=0.25;entryDx=0;entryDy=0;" edge="1" parent="1" source="mqnPU8PIk2e7HvB2Qb2y-18" target="mqnPU8PIk2e7HvB2Qb2y-241">
          <mxGeometry relative="1" as="geometry">
            <mxPoint x="1720" y="1575" as="sourcePoint" />
            <mxPoint x="1506" y="1533" as="targetPoint" />
          </mxGeometry>
        </mxCell>
        <mxCell id="mqnPU8PIk2e7HvB2Qb2y-244" style="edgeStyle=orthogonalEdgeStyle;rounded=0;orthogonalLoop=1;jettySize=auto;html=1;entryX=0.5;entryY=0;entryDx=0;entryDy=0;endArrow=block;endFill=0;exitX=0.5;exitY=1;exitDx=0;exitDy=0;" edge="1" parent="1" source="mqnPU8PIk2e7HvB2Qb2y-245" target="mqnPU8PIk2e7HvB2Qb2y-235">
          <mxGeometry relative="1" as="geometry" />
        </mxCell>
        <mxCell id="mqnPU8PIk2e7HvB2Qb2y-245" value="Territoire" style="swimlane;fontStyle=1;align=center;verticalAlign=top;childLayout=stackLayout;horizontal=1;startSize=26;horizontalStack=0;resizeParent=1;resizeParentMax=0;resizeLast=0;collapsible=1;marginBottom=0;" vertex="1" parent="1">
          <mxGeometry x="1207" y="249" width="210" height="58" as="geometry">
            <mxRectangle x="600" y="310" width="90" height="26" as="alternateBounds" />
          </mxGeometry>
        </mxCell>
        <mxCell id="mqnPU8PIk2e7HvB2Qb2y-246" value="+ nom: &#xa;" style="text;strokeColor=none;fillColor=none;align=left;verticalAlign=top;spacingLeft=4;spacingRight=4;overflow=hidden;rotatable=0;points=[[0,0.5],[1,0.5]];portConstraint=eastwest;" vertex="1" parent="mqnPU8PIk2e7HvB2Qb2y-245">
          <mxGeometry y="26" width="210" height="24" as="geometry" />
        </mxCell>
        <mxCell id="mqnPU8PIk2e7HvB2Qb2y-247" value="" style="line;strokeWidth=1;fillColor=none;align=left;verticalAlign=middle;spacingTop=-1;spacingLeft=3;spacingRight=3;rotatable=0;labelPosition=right;points=[];portConstraint=eastwest;" vertex="1" parent="mqnPU8PIk2e7HvB2Qb2y-245">
          <mxGeometry y="50" width="210" height="8" as="geometry" />
        </mxCell>
        <mxCell id="mqnPU8PIk2e7HvB2Qb2y-248" style="edgeStyle=orthogonalEdgeStyle;rounded=0;orthogonalLoop=1;jettySize=auto;html=1;entryX=0;entryY=0.5;entryDx=0;entryDy=0;endArrow=none;endFill=0;startArrow=none;" edge="1" parent="1" source="mqnPU8PIk2e7HvB2Qb2y-322" target="mqnPU8PIk2e7HvB2Qb2y-23">
          <mxGeometry relative="1" as="geometry" />
        </mxCell>
        <mxCell id="mqnPU8PIk2e7HvB2Qb2y-249" style="edgeStyle=orthogonalEdgeStyle;rounded=0;orthogonalLoop=1;jettySize=auto;html=1;entryX=1;entryY=0.5;entryDx=0;entryDy=0;fontFamily=Helvetica;fontSize=12;endArrow=none;endFill=0;exitX=0.5;exitY=0;exitDx=0;exitDy=0;" edge="1" parent="1" source="mqnPU8PIk2e7HvB2Qb2y-251" target="mqnPU8PIk2e7HvB2Qb2y-213">
          <mxGeometry relative="1" as="geometry">
            <mxPoint x="-540" y="282" as="sourcePoint" />
          </mxGeometry>
        </mxCell>
        <mxCell id="mqnPU8PIk2e7HvB2Qb2y-250" value="&amp;nbsp;&amp;lt; &quot;en théorie&quot; est équivalent à" style="edgeLabel;html=1;align=center;verticalAlign=middle;resizable=0;points=[];fontSize=12;fontFamily=Helvetica;" vertex="1" connectable="0" parent="mqnPU8PIk2e7HvB2Qb2y-249">
          <mxGeometry x="-0.809" y="-6" relative="1" as="geometry">
            <mxPoint x="-111" y="-9" as="offset" />
          </mxGeometry>
        </mxCell>
        <mxCell id="mqnPU8PIk2e7HvB2Qb2y-251" value="Réceptivité territoriale (OMS)" style="swimlane;fontStyle=1;align=center;verticalAlign=top;childLayout=stackLayout;horizontal=1;startSize=26;horizontalStack=0;resizeParent=1;resizeParentMax=0;resizeLast=0;collapsible=1;marginBottom=0;" vertex="1" parent="1">
          <mxGeometry x="1207" y="110" width="210" height="80" as="geometry">
            <mxRectangle x="600" y="310" width="90" height="26" as="alternateBounds" />
          </mxGeometry>
        </mxCell>
        <mxCell id="mqnPU8PIk2e7HvB2Qb2y-252" value="+ Réceptif: boolean&#xa;+ niveau de réceptivité: real &#xa;" style="text;strokeColor=none;fillColor=none;align=left;verticalAlign=top;spacingLeft=4;spacingRight=4;overflow=hidden;rotatable=0;points=[[0,0.5],[1,0.5]];portConstraint=eastwest;" vertex="1" parent="mqnPU8PIk2e7HvB2Qb2y-251">
          <mxGeometry y="26" width="210" height="44" as="geometry" />
        </mxCell>
        <mxCell id="mqnPU8PIk2e7HvB2Qb2y-253" value="" style="line;strokeWidth=1;fillColor=none;align=left;verticalAlign=middle;spacingTop=-1;spacingLeft=3;spacingRight=3;rotatable=0;labelPosition=right;points=[];portConstraint=eastwest;" vertex="1" parent="mqnPU8PIk2e7HvB2Qb2y-251">
          <mxGeometry y="70" width="210" height="10" as="geometry" />
        </mxCell>
        <mxCell id="mqnPU8PIk2e7HvB2Qb2y-254" style="edgeStyle=orthogonalEdgeStyle;rounded=0;orthogonalLoop=1;jettySize=auto;html=1;entryX=0.5;entryY=0;entryDx=0;entryDy=0;fontFamily=Times New Roman;fontSize=20;endArrow=none;endFill=0;exitX=0.5;exitY=1;exitDx=0;exitDy=0;" edge="1" parent="1" source="mqnPU8PIk2e7HvB2Qb2y-251" target="mqnPU8PIk2e7HvB2Qb2y-245">
          <mxGeometry relative="1" as="geometry" />
        </mxCell>
        <mxCell id="mqnPU8PIk2e7HvB2Qb2y-255" value="&amp;nbsp;caractérise &amp;gt;&amp;nbsp;" style="edgeLabel;html=1;align=center;verticalAlign=middle;resizable=0;points=[];fontSize=12;fontFamily=Helvetica;" vertex="1" connectable="0" parent="mqnPU8PIk2e7HvB2Qb2y-254">
          <mxGeometry x="-0.8231" relative="1" as="geometry">
            <mxPoint y="19" as="offset" />
          </mxGeometry>
        </mxCell>
        <mxCell id="mqnPU8PIk2e7HvB2Qb2y-266" value="Ecosystème" style="swimlane;fontStyle=1;align=center;verticalAlign=top;childLayout=stackLayout;horizontal=1;startSize=26;horizontalStack=0;resizeParent=1;resizeParentMax=0;resizeLast=0;collapsible=1;marginBottom=0;fillColor=#d5e8d4;strokeColor=#82b366;" vertex="1" parent="1">
          <mxGeometry x="-1200" y="2275" width="160" height="60" as="geometry">
            <mxRectangle x="320" y="370" width="90" height="26" as="alternateBounds" />
          </mxGeometry>
        </mxCell>
        <mxCell id="mqnPU8PIk2e7HvB2Qb2y-267" value="+ ..." style="text;strokeColor=none;fillColor=none;align=left;verticalAlign=top;spacingLeft=4;spacingRight=4;overflow=hidden;rotatable=0;points=[[0,0.5],[1,0.5]];portConstraint=eastwest;" vertex="1" parent="mqnPU8PIk2e7HvB2Qb2y-266">
          <mxGeometry y="26" width="160" height="26" as="geometry" />
        </mxCell>
        <mxCell id="mqnPU8PIk2e7HvB2Qb2y-268" value="" style="line;strokeWidth=1;fillColor=none;align=left;verticalAlign=middle;spacingTop=-1;spacingLeft=3;spacingRight=3;rotatable=0;labelPosition=right;points=[];portConstraint=eastwest;" vertex="1" parent="mqnPU8PIk2e7HvB2Qb2y-266">
          <mxGeometry y="52" width="160" height="8" as="geometry" />
        </mxCell>
        <mxCell id="mqnPU8PIk2e7HvB2Qb2y-269" value="Genre" style="swimlane;fontStyle=1;align=center;verticalAlign=top;childLayout=stackLayout;horizontal=1;startSize=26;horizontalStack=0;resizeParent=1;resizeParentMax=0;resizeLast=0;collapsible=1;marginBottom=0;" vertex="1" parent="1">
          <mxGeometry x="-590" y="1934" width="120" height="36" as="geometry" />
        </mxCell>
        <mxCell id="mqnPU8PIk2e7HvB2Qb2y-270" value="" style="line;strokeWidth=1;fillColor=none;align=left;verticalAlign=middle;spacingTop=-1;spacingLeft=3;spacingRight=3;rotatable=0;labelPosition=right;points=[];portConstraint=eastwest;" vertex="1" parent="mqnPU8PIk2e7HvB2Qb2y-269">
          <mxGeometry y="26" width="120" height="10" as="geometry" />
        </mxCell>
        <mxCell id="mqnPU8PIk2e7HvB2Qb2y-271" style="edgeStyle=orthogonalEdgeStyle;rounded=0;orthogonalLoop=1;jettySize=auto;html=1;exitX=0.5;exitY=0;exitDx=0;exitDy=0;entryX=0.5;entryY=1;entryDx=0;entryDy=0;endArrow=diamond;endFill=0;" edge="1" parent="1" source="mqnPU8PIk2e7HvB2Qb2y-272" target="mqnPU8PIk2e7HvB2Qb2y-269">
          <mxGeometry relative="1" as="geometry" />
        </mxCell>
        <mxCell id="mqnPU8PIk2e7HvB2Qb2y-272" value="Espèce" style="swimlane;fontStyle=1;align=center;verticalAlign=top;childLayout=stackLayout;horizontal=1;startSize=26;horizontalStack=0;resizeParent=1;resizeParentMax=0;resizeLast=0;collapsible=1;marginBottom=0;" vertex="1" parent="1">
          <mxGeometry x="-590" y="2137" width="120" height="36" as="geometry" />
        </mxCell>
        <mxCell id="mqnPU8PIk2e7HvB2Qb2y-273" value="" style="line;strokeWidth=1;fillColor=none;align=left;verticalAlign=middle;spacingTop=-1;spacingLeft=3;spacingRight=3;rotatable=0;labelPosition=right;points=[];portConstraint=eastwest;" vertex="1" parent="mqnPU8PIk2e7HvB2Qb2y-272">
          <mxGeometry y="26" width="120" height="10" as="geometry" />
        </mxCell>
        <mxCell id="mqnPU8PIk2e7HvB2Qb2y-274" style="edgeStyle=orthogonalEdgeStyle;rounded=0;orthogonalLoop=1;jettySize=auto;html=1;exitX=0;exitY=0.5;exitDx=0;exitDy=0;entryX=1;entryY=0.25;entryDx=0;entryDy=0;endArrow=block;endFill=0;" edge="1" parent="1" source="mqnPU8PIk2e7HvB2Qb2y-110" target="mqnPU8PIk2e7HvB2Qb2y-272">
          <mxGeometry relative="1" as="geometry" />
        </mxCell>
        <mxCell id="mqnPU8PIk2e7HvB2Qb2y-275" value="Arthropode" style="swimlane;fontStyle=1;align=center;verticalAlign=top;childLayout=stackLayout;horizontal=1;startSize=26;horizontalStack=0;resizeParent=1;resizeParentMax=0;resizeLast=0;collapsible=1;marginBottom=0;fillColor=#dae8fc;strokeColor=#6c8ebf;" vertex="1" parent="1">
          <mxGeometry x="-1460" y="1789" width="190" height="36" as="geometry" />
        </mxCell>
        <mxCell id="mqnPU8PIk2e7HvB2Qb2y-276" value="" style="line;strokeWidth=1;fillColor=none;align=left;verticalAlign=middle;spacingTop=-1;spacingLeft=3;spacingRight=3;rotatable=0;labelPosition=right;points=[];portConstraint=eastwest;" vertex="1" parent="mqnPU8PIk2e7HvB2Qb2y-275">
          <mxGeometry y="26" width="190" height="10" as="geometry" />
        </mxCell>
        <mxCell id="mqnPU8PIk2e7HvB2Qb2y-277" style="edgeStyle=orthogonalEdgeStyle;rounded=0;orthogonalLoop=1;jettySize=auto;html=1;exitX=0.5;exitY=0;exitDx=0;exitDy=0;entryX=0.5;entryY=1;entryDx=0;entryDy=0;endArrow=block;endFill=0;" edge="1" parent="1" source="mqnPU8PIk2e7HvB2Qb2y-278" target="mqnPU8PIk2e7HvB2Qb2y-275">
          <mxGeometry relative="1" as="geometry" />
        </mxCell>
        <mxCell id="mqnPU8PIk2e7HvB2Qb2y-278" value="Moustique" style="swimlane;fontStyle=1;align=center;verticalAlign=top;childLayout=stackLayout;horizontal=1;startSize=26;horizontalStack=0;resizeParent=1;resizeParentMax=0;resizeLast=0;collapsible=1;marginBottom=0;fillColor=#dae8fc;strokeColor=#6c8ebf;" vertex="1" parent="1">
          <mxGeometry x="-1460" y="1851" width="190" height="36" as="geometry" />
        </mxCell>
        <mxCell id="mqnPU8PIk2e7HvB2Qb2y-279" value="" style="line;strokeWidth=1;fillColor=none;align=left;verticalAlign=middle;spacingTop=-1;spacingLeft=3;spacingRight=3;rotatable=0;labelPosition=right;points=[];portConstraint=eastwest;" vertex="1" parent="mqnPU8PIk2e7HvB2Qb2y-278">
          <mxGeometry y="26" width="190" height="10" as="geometry" />
        </mxCell>
        <mxCell id="mqnPU8PIk2e7HvB2Qb2y-280" style="edgeStyle=orthogonalEdgeStyle;rounded=0;orthogonalLoop=1;jettySize=auto;html=1;exitX=1;exitY=0.5;exitDx=0;exitDy=0;entryX=0;entryY=0.25;entryDx=0;entryDy=0;endArrow=block;endFill=0;" edge="1" parent="1" source="mqnPU8PIk2e7HvB2Qb2y-70" target="mqnPU8PIk2e7HvB2Qb2y-272">
          <mxGeometry relative="1" as="geometry" />
        </mxCell>
        <mxCell id="mqnPU8PIk2e7HvB2Qb2y-281" style="edgeStyle=orthogonalEdgeStyle;rounded=0;orthogonalLoop=1;jettySize=auto;html=1;entryX=1;entryY=0.5;entryDx=0;entryDy=0;endArrow=block;endFill=0;exitX=0.5;exitY=1;exitDx=0;exitDy=0;" edge="1" parent="1" source="mqnPU8PIk2e7HvB2Qb2y-123" target="mqnPU8PIk2e7HvB2Qb2y-272">
          <mxGeometry relative="1" as="geometry" />
        </mxCell>
        <mxCell id="mqnPU8PIk2e7HvB2Qb2y-282" value="" style="edgeStyle=elbowEdgeStyle;rounded=0;orthogonalLoop=1;jettySize=auto;html=1;exitX=0.5;exitY=0;exitDx=0;exitDy=0;entryX=0.5;entryY=1;entryDx=0;entryDy=0;endArrow=none;endFill=0;strokeColor=default;elbow=vertical;" edge="1" parent="1" source="mqnPU8PIk2e7HvB2Qb2y-238" target="mqnPU8PIk2e7HvB2Qb2y-317">
          <mxGeometry relative="1" as="geometry">
            <Array as="points" />
            <mxPoint x="-341" y="1593" as="sourcePoint" />
            <mxPoint x="-352" y="1618" as="targetPoint" />
          </mxGeometry>
        </mxCell>
        <mxCell id="mqnPU8PIk2e7HvB2Qb2y-283" style="edgeStyle=orthogonalEdgeStyle;rounded=0;orthogonalLoop=1;jettySize=auto;html=1;exitX=0.25;exitY=0;exitDx=0;exitDy=0;entryX=0;entryY=0.25;entryDx=0;entryDy=0;startArrow=none;startFill=0;endArrow=none;endFill=0;" edge="1" parent="1" source="mqnPU8PIk2e7HvB2Qb2y-176" target="mqnPU8PIk2e7HvB2Qb2y-176">
          <mxGeometry relative="1" as="geometry">
            <Array as="points">
              <mxPoint x="522" y="3300" />
              <mxPoint x="471" y="3300" />
              <mxPoint x="471" y="3330" />
            </Array>
          </mxGeometry>
        </mxCell>
        <mxCell id="mqnPU8PIk2e7HvB2Qb2y-284" value="Généralise" style="edgeLabel;html=1;align=center;verticalAlign=middle;resizable=0;points=[];" vertex="1" connectable="0" parent="mqnPU8PIk2e7HvB2Qb2y-283">
          <mxGeometry x="-0.0899" relative="1" as="geometry">
            <mxPoint x="-31" y="10" as="offset" />
          </mxGeometry>
        </mxCell>
        <mxCell id="mqnPU8PIk2e7HvB2Qb2y-285" style="edgeStyle=orthogonalEdgeStyle;rounded=0;orthogonalLoop=1;jettySize=auto;html=1;entryX=0.559;entryY=1.032;entryDx=0;entryDy=0;entryPerimeter=0;startArrow=none;startFill=0;endArrow=none;endFill=0;" edge="1" parent="1" source="mqnPU8PIk2e7HvB2Qb2y-287" target="mqnPU8PIk2e7HvB2Qb2y-181">
          <mxGeometry relative="1" as="geometry" />
        </mxCell>
        <mxCell id="mqnPU8PIk2e7HvB2Qb2y-286" value="&lt;u style=&quot;border-color: var(--border-color); font-size: 12px; background-color: rgb(251, 251, 251);&quot;&gt;&amp;lt; généralise&lt;/u&gt;" style="edgeLabel;html=1;align=center;verticalAlign=middle;resizable=0;points=[];" vertex="1" connectable="0" parent="mqnPU8PIk2e7HvB2Qb2y-285">
          <mxGeometry x="-0.4027" y="1" relative="1" as="geometry">
            <mxPoint x="24" as="offset" />
          </mxGeometry>
        </mxCell>
        <mxCell id="mqnPU8PIk2e7HvB2Qb2y-287" value="Orp_Ill" style="swimlane;fontStyle=4;childLayout=stackLayout;horizontal=1;startSize=26;fillColor=none;horizontalStack=0;resizeParent=1;resizeParentMax=0;resizeLast=0;collapsible=1;marginBottom=0;fontFamily=Helvetica;fontSize=11;fontColor=default;" vertex="1" parent="1">
          <mxGeometry x="206" y="3635" width="148" height="52" as="geometry">
            <mxRectangle x="610" y="510" width="40" height="26" as="alternateBounds" />
          </mxGeometry>
        </mxCell>
        <mxCell id="mqnPU8PIk2e7HvB2Qb2y-288" value="label=&quot;Orpaillage illégal&quot;" style="text;strokeColor=none;fillColor=none;align=left;verticalAlign=top;spacingLeft=4;spacingRight=4;overflow=hidden;rotatable=0;points=[[0,0.5],[1,0.5]];portConstraint=eastwest;fontFamily=Helvetica;fontSize=11;fontColor=default;" vertex="1" parent="mqnPU8PIk2e7HvB2Qb2y-287">
          <mxGeometry y="26" width="148" height="26" as="geometry" />
        </mxCell>
        <mxCell id="mqnPU8PIk2e7HvB2Qb2y-289" value="&amp;lt; modifie" style="text;html=1;align=center;verticalAlign=middle;resizable=0;points=[];autosize=1;strokeColor=none;fillColor=none;" vertex="1" parent="1">
          <mxGeometry x="-650" y="3092" width="70" height="30" as="geometry" />
        </mxCell>
        <mxCell id="mqnPU8PIk2e7HvB2Qb2y-290" value="" style="edgeStyle=orthogonalEdgeStyle;rounded=0;orthogonalLoop=1;jettySize=auto;html=1;exitX=0;exitY=0.5;exitDx=0;exitDy=0;endArrow=none;endFill=0;" edge="1" parent="1" source="mqnPU8PIk2e7HvB2Qb2y-167" target="mqnPU8PIk2e7HvB2Qb2y-289">
          <mxGeometry relative="1" as="geometry">
            <mxPoint x="-560" y="3057" as="sourcePoint" />
            <mxPoint x="-641" y="3148" as="targetPoint" />
          </mxGeometry>
        </mxCell>
        <mxCell id="mqnPU8PIk2e7HvB2Qb2y-291" style="edgeStyle=orthogonalEdgeStyle;rounded=0;orthogonalLoop=1;jettySize=auto;html=1;entryX=0.5;entryY=1;entryDx=0;entryDy=0;fontSize=17;fontColor=#EA6B66;startArrow=none;startFill=0;endArrow=none;endFill=0;" edge="1" parent="1" source="mqnPU8PIk2e7HvB2Qb2y-292" target="mqnPU8PIk2e7HvB2Qb2y-166">
          <mxGeometry relative="1" as="geometry" />
        </mxCell>
        <mxCell id="mqnPU8PIk2e7HvB2Qb2y-292" value="&amp;lt; Contribuent" style="text;html=1;align=center;verticalAlign=middle;resizable=0;points=[];autosize=1;strokeColor=none;fillColor=none;" vertex="1" parent="1">
          <mxGeometry x="-529" y="3105" width="100" height="30" as="geometry" />
        </mxCell>
        <mxCell id="mqnPU8PIk2e7HvB2Qb2y-293" value="" style="edgeStyle=orthogonalEdgeStyle;rounded=0;orthogonalLoop=1;jettySize=auto;html=1;entryX=0.5;entryY=1;entryDx=0;entryDy=0;endArrow=none;endFill=0;" edge="1" parent="1" target="mqnPU8PIk2e7HvB2Qb2y-292">
          <mxGeometry relative="1" as="geometry">
            <mxPoint x="470" y="3215" as="sourcePoint" />
            <mxPoint x="-479" y="3086" as="targetPoint" />
          </mxGeometry>
        </mxCell>
        <mxCell id="mqnPU8PIk2e7HvB2Qb2y-294" style="edgeStyle=orthogonalEdgeStyle;rounded=0;orthogonalLoop=1;jettySize=auto;html=1;entryX=0.25;entryY=1;entryDx=0;entryDy=0;startArrow=none;startFill=0;endArrow=open;endFill=0;dashed=1;dashPattern=1 1;" edge="1" parent="1" source="mqnPU8PIk2e7HvB2Qb2y-295" target="mqnPU8PIk2e7HvB2Qb2y-176">
          <mxGeometry relative="1" as="geometry" />
        </mxCell>
        <mxCell id="mqnPU8PIk2e7HvB2Qb2y-295" value="Pro" style="swimlane;fontStyle=4;childLayout=stackLayout;horizontal=1;startSize=26;fillColor=none;horizontalStack=0;resizeParent=1;resizeParentMax=0;resizeLast=0;collapsible=1;marginBottom=0;fontFamily=Helvetica;fontSize=11;fontColor=default;" vertex="1" parent="1">
          <mxGeometry x="442" y="3427" width="130" height="50" as="geometry">
            <mxRectangle x="610" y="510" width="40" height="26" as="alternateBounds" />
          </mxGeometry>
        </mxCell>
        <mxCell id="mqnPU8PIk2e7HvB2Qb2y-296" value="label=&quot;Professionnelle&quot;" style="text;strokeColor=none;fillColor=none;align=left;verticalAlign=top;spacingLeft=4;spacingRight=4;overflow=hidden;rotatable=0;points=[[0,0.5],[1,0.5]];portConstraint=eastwest;fontFamily=Helvetica;fontSize=11;fontColor=default;" vertex="1" parent="mqnPU8PIk2e7HvB2Qb2y-295">
          <mxGeometry y="26" width="130" height="24" as="geometry" />
        </mxCell>
        <mxCell id="mqnPU8PIk2e7HvB2Qb2y-297" style="edgeStyle=orthogonalEdgeStyle;rounded=0;orthogonalLoop=1;jettySize=auto;html=1;entryX=0.5;entryY=1;entryDx=0;entryDy=0;startArrow=none;startFill=0;endArrow=open;endFill=0;exitX=0.5;exitY=0;exitDx=0;exitDy=0;dashed=1;dashPattern=1 1;" edge="1" parent="1" source="mqnPU8PIk2e7HvB2Qb2y-298" target="mqnPU8PIk2e7HvB2Qb2y-176">
          <mxGeometry relative="1" as="geometry">
            <Array as="points">
              <mxPoint x="716" y="3410" />
              <mxPoint x="551" y="3410" />
            </Array>
          </mxGeometry>
        </mxCell>
        <mxCell id="mqnPU8PIk2e7HvB2Qb2y-298" value="Loi" style="swimlane;fontStyle=4;childLayout=stackLayout;horizontal=1;startSize=26;fillColor=none;horizontalStack=0;resizeParent=1;resizeParentMax=0;resizeLast=0;collapsible=1;marginBottom=0;" vertex="1" parent="1">
          <mxGeometry x="671" y="3427" width="90" height="52" as="geometry" />
        </mxCell>
        <mxCell id="mqnPU8PIk2e7HvB2Qb2y-299" value="label=&quot;Loisir&quot;" style="text;strokeColor=none;fillColor=none;align=left;verticalAlign=top;spacingLeft=4;spacingRight=4;overflow=hidden;rotatable=0;points=[[0,0.5],[1,0.5]];portConstraint=eastwest;" vertex="1" parent="mqnPU8PIk2e7HvB2Qb2y-298">
          <mxGeometry y="26" width="90" height="26" as="geometry" />
        </mxCell>
        <mxCell id="mqnPU8PIk2e7HvB2Qb2y-300" value="&lt;u style=&quot;border-color: var(--border-color); font-size: 12px; background-color: rgb(251, 251, 251);&quot;&gt;&amp;lt; généralise&lt;/u&gt;" style="edgeLabel;html=1;align=center;verticalAlign=middle;resizable=0;points=[];" vertex="1" connectable="0" parent="1">
          <mxGeometry x="421.00000000000045" y="3494.998260869566" as="geometry" />
        </mxCell>
        <mxCell id="mqnPU8PIk2e7HvB2Qb2y-301" value="&lt;u style=&quot;border-color: var(--border-color); font-size: 12px; background-color: rgb(251, 251, 251);&quot;&gt;&amp;lt; généralise&lt;/u&gt;" style="edgeLabel;html=1;align=center;verticalAlign=middle;resizable=0;points=[];" vertex="1" connectable="0" parent="1">
          <mxGeometry x="521.0000000000005" y="3494.998260869566" as="geometry" />
        </mxCell>
        <mxCell id="mqnPU8PIk2e7HvB2Qb2y-302" value="&lt;u style=&quot;border-color: var(--border-color); font-size: 12px; background-color: rgb(251, 251, 251);&quot;&gt;&amp;lt; généralise&lt;/u&gt;" style="edgeLabel;html=1;align=center;verticalAlign=middle;resizable=0;points=[];" vertex="1" connectable="0" parent="1">
          <mxGeometry x="611.0000000000005" y="3494.998260869566" as="geometry" />
        </mxCell>
        <mxCell id="mqnPU8PIk2e7HvB2Qb2y-303" style="edgeStyle=orthogonalEdgeStyle;rounded=0;orthogonalLoop=1;jettySize=auto;html=1;entryX=0.75;entryY=1;entryDx=0;entryDy=0;dashed=1;dashPattern=1 1;startArrow=none;startFill=0;endArrow=open;endFill=0;exitX=0.5;exitY=0;exitDx=0;exitDy=0;" edge="1" parent="1" source="mqnPU8PIk2e7HvB2Qb2y-304" target="mqnPU8PIk2e7HvB2Qb2y-176">
          <mxGeometry relative="1" as="geometry" />
        </mxCell>
        <mxCell id="mqnPU8PIk2e7HvB2Qb2y-304" value="Dom" style="swimlane;fontStyle=4;childLayout=stackLayout;horizontal=1;startSize=26;fillColor=none;horizontalStack=0;resizeParent=1;resizeParentMax=0;resizeLast=0;collapsible=1;marginBottom=0;" vertex="1" parent="1">
          <mxGeometry x="806" y="3427" width="125" height="52" as="geometry" />
        </mxCell>
        <mxCell id="mqnPU8PIk2e7HvB2Qb2y-305" value="label=&quot;Domestique&quot;" style="text;strokeColor=none;fillColor=none;align=left;verticalAlign=top;spacingLeft=4;spacingRight=4;overflow=hidden;rotatable=0;points=[[0,0.5],[1,0.5]];portConstraint=eastwest;" vertex="1" parent="mqnPU8PIk2e7HvB2Qb2y-304">
          <mxGeometry y="26" width="125" height="26" as="geometry" />
        </mxCell>
        <mxCell id="mqnPU8PIk2e7HvB2Qb2y-306" value="" style="shape=waypoint;sketch=0;size=6;pointerEvents=1;points=[];fillColor=none;resizable=0;rotatable=0;perimeter=centerPerimeter;snapToPoint=1;" vertex="1" parent="1">
          <mxGeometry x="-374" y="1737" width="40" height="40" as="geometry" />
        </mxCell>
        <mxCell id="mqnPU8PIk2e7HvB2Qb2y-307" value="" style="edgeStyle=orthogonalEdgeStyle;rounded=0;orthogonalLoop=1;jettySize=auto;html=1;exitX=0;exitY=0.5;exitDx=0;exitDy=0;endArrow=none;endFill=0;entryDx=0;entryDy=0;" edge="1" parent="1" source="mqnPU8PIk2e7HvB2Qb2y-101" target="mqnPU8PIk2e7HvB2Qb2y-306">
          <mxGeometry relative="1" as="geometry">
            <mxPoint x="-732" y="1757.0000000000005" as="targetPoint" />
            <mxPoint x="80" y="1757" as="sourcePoint" />
          </mxGeometry>
        </mxCell>
        <mxCell id="mqnPU8PIk2e7HvB2Qb2y-309" value="" style="shape=waypoint;sketch=0;size=6;pointerEvents=1;points=[];fillColor=none;resizable=0;rotatable=0;perimeter=centerPerimeter;snapToPoint=1;" vertex="1" parent="1">
          <mxGeometry x="515" y="1709" width="40" height="40" as="geometry" />
        </mxCell>
        <mxCell id="mqnPU8PIk2e7HvB2Qb2y-310" value="" style="edgeStyle=orthogonalEdgeStyle;rounded=0;orthogonalLoop=1;jettySize=auto;html=1;exitX=1;exitY=0.25;exitDx=0;exitDy=0;entryDx=0;entryDy=0;endArrow=none;endFill=0;" edge="1" parent="1" source="mqnPU8PIk2e7HvB2Qb2y-100" target="mqnPU8PIk2e7HvB2Qb2y-309">
          <mxGeometry relative="1" as="geometry">
            <mxPoint x="310" y="1729" as="sourcePoint" />
            <mxPoint x="1570" y="1328" as="targetPoint" />
          </mxGeometry>
        </mxCell>
        <mxCell id="mqnPU8PIk2e7HvB2Qb2y-311" style="edgeStyle=orthogonalEdgeStyle;rounded=0;orthogonalLoop=1;jettySize=auto;html=1;entryX=0.5;entryY=1;entryDx=0;entryDy=0;fontSize=17;fontColor=#EA6B66;startArrow=none;startFill=0;endArrow=none;endFill=0;" edge="1" parent="1" source="mqnPU8PIk2e7HvB2Qb2y-312" target="mqnPU8PIk2e7HvB2Qb2y-241">
          <mxGeometry relative="1" as="geometry" />
        </mxCell>
        <mxCell id="mqnPU8PIk2e7HvB2Qb2y-312" value="" style="shape=waypoint;sketch=0;size=6;pointerEvents=1;points=[];fillColor=none;resizable=0;rotatable=0;perimeter=centerPerimeter;snapToPoint=1;" vertex="1" parent="1">
          <mxGeometry x="1315" y="1747" width="40" height="40" as="geometry" />
        </mxCell>
        <mxCell id="mqnPU8PIk2e7HvB2Qb2y-313" value="" style="edgeStyle=orthogonalEdgeStyle;rounded=0;orthogonalLoop=1;jettySize=auto;html=1;exitX=1.004;exitY=0.75;exitDx=0;exitDy=0;entryDx=0;entryDy=0;endArrow=none;endFill=0;exitPerimeter=0;" edge="1" parent="1" source="mqnPU8PIk2e7HvB2Qb2y-101" target="mqnPU8PIk2e7HvB2Qb2y-312">
          <mxGeometry relative="1" as="geometry">
            <mxPoint x="310.9200000000001" y="1768" as="sourcePoint" />
            <mxPoint x="1815" y="1688" as="targetPoint" />
          </mxGeometry>
        </mxCell>
        <mxCell id="mqnPU8PIk2e7HvB2Qb2y-314" style="edgeStyle=elbowEdgeStyle;rounded=0;orthogonalLoop=1;jettySize=auto;html=1;entryX=0.75;entryY=1;entryDx=0;entryDy=0;dashed=1;fontSize=17;fontColor=#EA6B66;startArrow=none;startFill=0;endArrow=none;endFill=0;elbow=vertical;" edge="1" parent="1" source="mqnPU8PIk2e7HvB2Qb2y-315" target="mqnPU8PIk2e7HvB2Qb2y-31">
          <mxGeometry relative="1" as="geometry" />
        </mxCell>
        <mxCell id="mqnPU8PIk2e7HvB2Qb2y-315" value="" style="shape=waypoint;sketch=0;size=6;pointerEvents=1;points=[];fillColor=none;resizable=0;rotatable=0;perimeter=centerPerimeter;snapToPoint=1;" vertex="1" parent="1">
          <mxGeometry x="446" y="1518" width="40" height="40" as="geometry" />
        </mxCell>
        <mxCell id="mqnPU8PIk2e7HvB2Qb2y-316" value="" style="edgeStyle=orthogonalEdgeStyle;rounded=0;orthogonalLoop=1;jettySize=auto;html=1;exitX=1;exitY=0.25;exitDx=0;exitDy=0;endArrow=none;endFill=0;entryDx=0;entryDy=0;" edge="1" parent="1" source="mqnPU8PIk2e7HvB2Qb2y-141" target="mqnPU8PIk2e7HvB2Qb2y-315">
          <mxGeometry relative="1" as="geometry">
            <mxPoint x="1235" y="1497" as="targetPoint" />
            <mxPoint x="-255" y="1512.5" as="sourcePoint" />
          </mxGeometry>
        </mxCell>
        <mxCell id="mqnPU8PIk2e7HvB2Qb2y-317" value="&lt;span style=&quot;color: rgb(0, 0, 0); font-family: Helvetica; font-size: 12px; font-style: normal; font-variant-ligatures: normal; font-variant-caps: normal; font-weight: 400; letter-spacing: normal; orphans: 2; text-align: center; text-indent: 0px; text-transform: none; widows: 2; word-spacing: 0px; -webkit-text-stroke-width: 0px; background-color: rgb(251, 251, 251); text-decoration-thickness: initial; text-decoration-style: initial; text-decoration-color: initial; float: none; display: inline !important;&quot;&gt;Génère &amp;gt;&lt;/span&gt;" style="text;whiteSpace=wrap;html=1;" vertex="1" parent="1">
          <mxGeometry x="-382" y="1615" width="60" height="20" as="geometry" />
        </mxCell>
        <mxCell id="mqnPU8PIk2e7HvB2Qb2y-318" style="edgeStyle=orthogonalEdgeStyle;rounded=0;orthogonalLoop=1;jettySize=auto;html=1;entryX=0.5;entryY=1;entryDx=0;entryDy=0;dashed=1;startArrow=none;startFill=0;endArrow=none;endFill=0;" edge="1" parent="1" source="mqnPU8PIk2e7HvB2Qb2y-319" target="mqnPU8PIk2e7HvB2Qb2y-27">
          <mxGeometry relative="1" as="geometry" />
        </mxCell>
        <mxCell id="mqnPU8PIk2e7HvB2Qb2y-319" value="" style="shape=waypoint;sketch=0;size=6;pointerEvents=1;points=[];fillColor=none;resizable=0;rotatable=0;perimeter=centerPerimeter;snapToPoint=1;" vertex="1" parent="1">
          <mxGeometry x="515" y="1312" width="40" height="40" as="geometry" />
        </mxCell>
        <mxCell id="mqnPU8PIk2e7HvB2Qb2y-320" value="" style="edgeStyle=orthogonalEdgeStyle;rounded=0;orthogonalLoop=1;jettySize=auto;html=1;exitX=0.5;exitY=0;exitDx=0;exitDy=0;entryDx=0;entryDy=0;endArrow=none;endFill=0;" edge="1" parent="1" source="mqnPU8PIk2e7HvB2Qb2y-48" target="mqnPU8PIk2e7HvB2Qb2y-319">
          <mxGeometry relative="1" as="geometry">
            <Array as="points">
              <mxPoint x="-827" y="1332" />
            </Array>
            <mxPoint x="-827" y="1116" as="sourcePoint" />
            <mxPoint x="1235" y="902" as="targetPoint" />
          </mxGeometry>
        </mxCell>
        <mxCell id="mqnPU8PIk2e7HvB2Qb2y-321" style="edgeStyle=orthogonalEdgeStyle;rounded=0;orthogonalLoop=1;jettySize=auto;html=1;entryX=0;entryY=0.25;entryDx=0;entryDy=0;dashed=1;startArrow=none;startFill=0;endArrow=none;endFill=0;" edge="1" parent="1" source="mqnPU8PIk2e7HvB2Qb2y-322" target="mqnPU8PIk2e7HvB2Qb2y-245">
          <mxGeometry relative="1" as="geometry">
            <Array as="points">
              <mxPoint x="1018" y="264" />
            </Array>
          </mxGeometry>
        </mxCell>
        <mxCell id="mqnPU8PIk2e7HvB2Qb2y-322" value="" style="shape=waypoint;sketch=0;size=6;pointerEvents=1;points=[];fillColor=none;resizable=0;rotatable=0;perimeter=centerPerimeter;snapToPoint=1;" vertex="1" parent="1">
          <mxGeometry x="998" y="753" width="40" height="40" as="geometry" />
        </mxCell>
        <mxCell id="mqnPU8PIk2e7HvB2Qb2y-323" value="" style="edgeStyle=orthogonalEdgeStyle;rounded=0;orthogonalLoop=1;jettySize=auto;html=1;endArrow=none;endFill=0;entryX=0.125;entryY=0.475;entryDx=0;entryDy=0;entryPerimeter=0;" edge="1" parent="1" source="mqnPU8PIk2e7HvB2Qb2y-173" target="mqnPU8PIk2e7HvB2Qb2y-322">
          <mxGeometry relative="1" as="geometry">
            <mxPoint x="960" y="697" as="sourcePoint" />
            <mxPoint x="1165" y="673" as="targetPoint" />
          </mxGeometry>
        </mxCell>
        <mxCell id="mqnPU8PIk2e7HvB2Qb2y-324" style="edgeStyle=orthogonalEdgeStyle;rounded=0;orthogonalLoop=1;jettySize=auto;html=1;entryX=0.75;entryY=0;entryDx=0;entryDy=0;fontSize=17;fontColor=#EA6B66;startArrow=none;startFill=0;endArrow=none;endFill=0;exitX=0.25;exitY=1;exitDx=0;exitDy=0;" edge="1" parent="1" source="mqnPU8PIk2e7HvB2Qb2y-325" target="mqnPU8PIk2e7HvB2Qb2y-80">
          <mxGeometry relative="1" as="geometry" />
        </mxCell>
        <mxCell id="mqnPU8PIk2e7HvB2Qb2y-325" value="Moment" style="swimlane;fontStyle=1;align=center;verticalAlign=top;childLayout=stackLayout;horizontal=1;startSize=26;horizontalStack=0;resizeParent=1;resizeParentMax=0;resizeLast=0;collapsible=1;marginBottom=0;fillColor=#eeeeee;strokeColor=#36393d;" vertex="1" parent="1">
          <mxGeometry x="639.5" y="832" width="121" height="112" as="geometry">
            <mxRectangle x="600" y="310" width="90" height="26" as="alternateBounds" />
          </mxGeometry>
        </mxCell>
        <mxCell id="mqnPU8PIk2e7HvB2Qb2y-326" value="+ nom: char&#xa;+ date: date&#xa;+ heure: heure&#xa;+ saison: char&#xa;+ ..." style="text;strokeColor=none;fillColor=none;align=left;verticalAlign=top;spacingLeft=4;spacingRight=4;overflow=hidden;rotatable=0;points=[[0,0.5],[1,0.5]];portConstraint=eastwest;" vertex="1" parent="mqnPU8PIk2e7HvB2Qb2y-325">
          <mxGeometry y="26" width="121" height="78" as="geometry" />
        </mxCell>
        <mxCell id="mqnPU8PIk2e7HvB2Qb2y-327" value="" style="line;strokeWidth=1;fillColor=none;align=left;verticalAlign=middle;spacingTop=-1;spacingLeft=3;spacingRight=3;rotatable=0;labelPosition=right;points=[];portConstraint=eastwest;" vertex="1" parent="mqnPU8PIk2e7HvB2Qb2y-325">
          <mxGeometry y="104" width="121" height="8" as="geometry" />
        </mxCell>
        <mxCell id="mqnPU8PIk2e7HvB2Qb2y-339" style="edgeStyle=orthogonalEdgeStyle;rounded=0;orthogonalLoop=1;jettySize=auto;html=1;exitX=0.5;exitY=1;exitDx=0;exitDy=0;entryX=0.5;entryY=0;entryDx=0;entryDy=0;fontSize=17;fontColor=#EA6B66;startArrow=none;startFill=0;endArrow=none;endFill=0;dashed=1;" edge="1" parent="1" source="mqnPU8PIk2e7HvB2Qb2y-342" target="mqnPU8PIk2e7HvB2Qb2y-351">
          <mxGeometry relative="1" as="geometry" />
        </mxCell>
        <mxCell id="mqnPU8PIk2e7HvB2Qb2y-342" value="(Occurrence de) piqûre(s) infectante(s) (transmission)" style="swimlane;fontStyle=1;align=center;verticalAlign=top;childLayout=stackLayout;horizontal=1;startSize=26;horizontalStack=0;resizeParent=1;resizeParentMax=0;resizeLast=0;collapsible=1;marginBottom=0;fillColor=#dae8fc;strokeColor=#6c8ebf;gradientDirection=east;gradientColor=#E6D0DE;" vertex="1" parent="1">
          <mxGeometry x="248" y="350" width="320" height="80" as="geometry" />
        </mxCell>
        <mxCell id="mqnPU8PIk2e7HvB2Qb2y-343" value="+ ..." style="text;strokeColor=none;fillColor=none;align=left;verticalAlign=top;spacingLeft=4;spacingRight=4;overflow=hidden;rotatable=0;points=[[0,0.5],[1,0.5]];portConstraint=eastwest;" vertex="1" parent="mqnPU8PIk2e7HvB2Qb2y-342">
          <mxGeometry y="26" width="320" height="44" as="geometry" />
        </mxCell>
        <mxCell id="mqnPU8PIk2e7HvB2Qb2y-344" value="" style="line;strokeWidth=1;fillColor=none;align=left;verticalAlign=middle;spacingTop=-1;spacingLeft=3;spacingRight=3;rotatable=0;labelPosition=right;points=[];portConstraint=eastwest;" vertex="1" parent="mqnPU8PIk2e7HvB2Qb2y-342">
          <mxGeometry y="70" width="320" height="10" as="geometry" />
        </mxCell>
        <mxCell id="mqnPU8PIk2e7HvB2Qb2y-349" style="edgeStyle=orthogonalEdgeStyle;rounded=0;orthogonalLoop=1;jettySize=auto;html=1;entryX=0;entryY=0.25;entryDx=0;entryDy=0;fontSize=17;fontColor=#EA6B66;startArrow=none;startFill=0;endArrow=none;endFill=0;exitX=0.5;exitY=1;exitDx=0;exitDy=0;" edge="1" parent="1" source="mqnPU8PIk2e7HvB2Qb2y-351" target="mqnPU8PIk2e7HvB2Qb2y-325">
          <mxGeometry relative="1" as="geometry" />
        </mxCell>
        <mxCell id="mqnPU8PIk2e7HvB2Qb2y-350" style="edgeStyle=orthogonalEdgeStyle;rounded=0;orthogonalLoop=1;jettySize=auto;html=1;fontSize=17;fontColor=#EA6B66;startArrow=none;startFill=0;endArrow=none;endFill=0;entryX=0;entryY=0.25;entryDx=0;entryDy=0;exitX=1;exitY=0.5;exitDx=0;exitDy=0;" edge="1" parent="1" source="mqnPU8PIk2e7HvB2Qb2y-351" target="mqnPU8PIk2e7HvB2Qb2y-172">
          <mxGeometry relative="1" as="geometry">
            <mxPoint x="784" y="751" as="targetPoint" />
          </mxGeometry>
        </mxCell>
        <mxCell id="mqnPU8PIk2e7HvB2Qb2y-351" value="" style="rhombus;aspect=fixed;" vertex="1" parent="1">
          <mxGeometry x="398" y="730" width="20" height="20" as="geometry" />
        </mxCell>
        <mxCell id="mqnPU8PIk2e7HvB2Qb2y-353" style="edgeStyle=orthogonalEdgeStyle;rounded=0;orthogonalLoop=1;jettySize=auto;html=1;entryX=0.75;entryY=1;entryDx=0;entryDy=0;fontSize=17;fontColor=#EA6B66;startArrow=none;startFill=0;endArrow=none;endFill=0;" edge="1" parent="1" source="mqnPU8PIk2e7HvB2Qb2y-40" target="mqnPU8PIk2e7HvB2Qb2y-325">
          <mxGeometry relative="1" as="geometry" />
        </mxCell>
        <mxCell id="mqnPU8PIk2e7HvB2Qb2y-354" style="edgeStyle=orthogonalEdgeStyle;rounded=0;orthogonalLoop=1;jettySize=auto;html=1;exitX=0.75;exitY=0;exitDx=0;exitDy=0;entryX=0.75;entryY=1;entryDx=0;entryDy=0;fontSize=17;fontColor=#EA6B66;startArrow=none;startFill=0;endArrow=block;endFill=0;" edge="1" parent="1" source="mqnPU8PIk2e7HvB2Qb2y-355" target="mqnPU8PIk2e7HvB2Qb2y-241">
          <mxGeometry relative="1" as="geometry" />
        </mxCell>
        <mxCell id="mqnPU8PIk2e7HvB2Qb2y-355" value="Cas asymptomatique" style="swimlane;fontStyle=1;align=center;verticalAlign=top;childLayout=stackLayout;horizontal=1;startSize=26;horizontalStack=0;resizeParent=1;resizeParentMax=0;resizeLast=0;collapsible=1;marginBottom=0;fillColor=#ffe6cc;strokeColor=#d79b00;" vertex="1" parent="1">
          <mxGeometry x="1342" y="1965" width="160" height="60" as="geometry" />
        </mxCell>
        <mxCell id="mqnPU8PIk2e7HvB2Qb2y-356" value="+ ... " style="text;strokeColor=none;fillColor=none;align=left;verticalAlign=top;spacingLeft=4;spacingRight=4;overflow=hidden;rotatable=0;points=[[0,0.5],[1,0.5]];portConstraint=eastwest;" vertex="1" parent="mqnPU8PIk2e7HvB2Qb2y-355">
          <mxGeometry y="26" width="160" height="24" as="geometry" />
        </mxCell>
        <mxCell id="mqnPU8PIk2e7HvB2Qb2y-357" value="" style="line;strokeWidth=1;fillColor=none;align=left;verticalAlign=middle;spacingTop=-1;spacingLeft=3;spacingRight=3;rotatable=0;labelPosition=right;points=[];portConstraint=eastwest;" vertex="1" parent="mqnPU8PIk2e7HvB2Qb2y-355">
          <mxGeometry y="50" width="160" height="10" as="geometry" />
        </mxCell>
      </root>
    </mxGraphModel>
  </diagram>
</mxfile>
